<?xml version="1.0" encoding="UTF-8"?>
<!DOCTYPE svg PUBLIC "-//W3C//DTD SVG 1.1//EN" "http://www.w3.org/Graphics/SVG/1.1/DTD/svg11.dtd">
<svg version="1.2" width="297mm" height="210mm" viewBox="0 0 29700 21000" preserveAspectRatio="xMidYMid" fill-rule="evenodd" clip-path="url(#presentation_clip_path)" stroke-width="28.222" stroke-linejoin="round" xmlns="http://www.w3.org/2000/svg" xmlns:ooo="http://xml.openoffice.org/svg/export" xmlns:xlink="http://www.w3.org/1999/xlink" xml:space="preserve">
 <defs class="ClipPathGroup">
  <clipPath id="presentation_clip_path" clipPathUnits="userSpaceOnUse">
   <rect x="0" y="0" width="29700" height="21000"/>
  </clipPath>
 </defs>
 <defs class="TextShapeIndex">
  <g ooo:slide="id1" ooo:id-list="id3 id4 id5 id6 id7 id8 id9 id10 id11 id12 id13 id14 id15 id16 id17 id18 id19 id20 id21 id22 id23 id24 id25 id26 id27 id28 id29 id30 id31 id32 id33 id34 id35 id36 id37 id38 id39 id40 id41 id42 id43 id44 id45 id46 id47 id48 id49"/>
 </defs>
 <defs class="EmbeddedBulletChars">
  <g id="bullet-char-template(57356)" transform="scale(0.00048828125,-0.00048828125)">
   <path d="M 580,1141 L 1163,571 580,0 -4,571 580,1141 Z"/>
  </g>
  <g id="bullet-char-template(57354)" transform="scale(0.00048828125,-0.00048828125)">
   <path d="M 8,1128 L 1137,1128 1137,0 8,0 8,1128 Z"/>
  </g>
  <g id="bullet-char-template(10146)" transform="scale(0.00048828125,-0.00048828125)">
   <path d="M 174,0 L 602,739 174,1481 1456,739 174,0 Z M 1358,739 L 309,1346 659,739 1358,739 Z"/>
  </g>
  <g id="bullet-char-template(10132)" transform="scale(0.00048828125,-0.00048828125)">
   <path d="M 2015,739 L 1276,0 717,0 1260,543 174,543 174,936 1260,936 717,1481 1274,1481 2015,739 Z"/>
  </g>
  <g id="bullet-char-template(10007)" transform="scale(0.00048828125,-0.00048828125)">
   <path d="M 0,-2 C -7,14 -16,27 -25,37 L 356,567 C 262,823 215,952 215,954 215,979 228,992 255,992 264,992 276,990 289,987 310,991 331,999 354,1012 L 381,999 492,748 772,1049 836,1024 860,1049 C 881,1039 901,1025 922,1006 886,937 835,863 770,784 769,783 710,716 594,584 L 774,223 C 774,196 753,168 711,139 L 727,119 C 717,90 699,76 672,76 641,76 570,178 457,381 L 164,-76 C 142,-110 111,-127 72,-127 30,-127 9,-110 8,-76 1,-67 -2,-52 -2,-32 -2,-23 -1,-13 0,-2 Z"/>
  </g>
  <g id="bullet-char-template(10004)" transform="scale(0.00048828125,-0.00048828125)">
   <path d="M 285,-33 C 182,-33 111,30 74,156 52,228 41,333 41,471 41,549 55,616 82,672 116,743 169,778 240,778 293,778 328,747 346,684 L 369,508 C 377,444 397,411 428,410 L 1163,1116 C 1174,1127 1196,1133 1229,1133 1271,1133 1292,1118 1292,1087 L 1292,965 C 1292,929 1282,901 1262,881 L 442,47 C 390,-6 338,-33 285,-33 Z"/>
  </g>
  <g id="bullet-char-template(9679)" transform="scale(0.00048828125,-0.00048828125)">
   <path d="M 813,0 C 632,0 489,54 383,161 276,268 223,411 223,592 223,773 276,916 383,1023 489,1130 632,1184 813,1184 992,1184 1136,1130 1245,1023 1353,916 1407,772 1407,592 1407,412 1353,268 1245,161 1136,54 992,0 813,0 Z"/>
  </g>
  <g id="bullet-char-template(8226)" transform="scale(0.00048828125,-0.00048828125)">
   <path d="M 346,457 C 273,457 209,483 155,535 101,586 74,649 74,723 74,796 101,859 155,911 209,963 273,989 346,989 419,989 480,963 531,910 582,859 608,796 608,723 608,648 583,586 532,535 482,483 420,457 346,457 Z"/>
  </g>
  <g id="bullet-char-template(8211)" transform="scale(0.00048828125,-0.00048828125)">
   <path d="M -4,459 L 1135,459 1135,606 -4,606 -4,459 Z"/>
  </g>
 </defs>
 <defs class="TextEmbeddedBitmaps"/>
 <g>
  <g id="id2" class="Master_Slide">
   <g id="bg-id2" class="Background"/>
   <g id="bo-id2" class="BackgroundObjects"/>
  </g>
 </g>
 <g class="SlideGroup">
  <g>
   <g id="id1" class="Slide" clip-path="url(#presentation_clip_path)">
    <g class="Page">
     <g class="Group">
      <g class="com.sun.star.drawing.CustomShape">
       <g id="id3">
        <path fill="rgb(255,255,0)" stroke="none" d="M 8307,-772 L 939,-772 939,-3606 15674,-3606 15674,-772 8307,-772 Z"/>
        <path fill="none" stroke="rgb(255,255,0)" d="M 8307,-772 L 939,-772 939,-3606 15674,-3606 15674,-772 8307,-772 Z"/>
       </g>
      </g>
      <g class="com.sun.star.drawing.CustomShape">
       <g id="id4">
        <path fill="rgb(255,255,0)" stroke="none" d="M 13252,536 L 11410,536 11410,-5132 15094,-5132 15094,536 13252,536 Z"/>
        <path fill="none" stroke="rgb(255,255,0)" d="M 13252,536 L 11410,536 11410,-5132 15094,-5132 15094,536 13252,536 Z"/>
       </g>
      </g>
      <g class="com.sun.star.drawing.CustomShape">
       <g id="id5">
        <path fill="rgb(255,255,0)" stroke="none" d="M 14317,6204 L 11602,6204 11602,971 17031,971 17031,6204 14317,6204 Z"/>
        <path fill="none" stroke="rgb(255,255,0)" d="M 14317,6204 L 11602,6204 11602,971 17031,971 17031,6204 14317,6204 Z"/>
       </g>
      </g>
      <g class="com.sun.star.drawing.CustomShape">
       <g id="id6">
        <path fill="rgb(255,255,0)" stroke="none" d="M 18971,6204 L 17420,6204 17420,971 20522,971 20522,6204 18971,6204 Z"/>
        <path fill="none" stroke="rgb(255,255,0)" d="M 18971,6204 L 17420,6204 17420,971 20522,971 20522,6204 18971,6204 Z"/>
       </g>
      </g>
      <g class="com.sun.star.drawing.CustomShape">
       <g id="id7">
        <path fill="rgb(255,255,0)" stroke="none" d="M 14156,18502 L 12993,18502 12993,6075 15319,6075 15319,18502 14156,18502 Z"/>
        <path fill="none" stroke="rgb(255,255,0)" d="M 14156,18502 L 12993,18502 12993,6075 15319,6075 15319,18502 14156,18502 Z"/>
       </g>
      </g>
      <g class="com.sun.star.drawing.CustomShape">
       <g id="id8">
        <path fill="rgb(255,255,0)" stroke="none" d="M 16257,11655 L 15094,11655 15094,9475 17420,9475 17420,11655 16257,11655 Z"/>
        <path fill="none" stroke="rgb(255,255,0)" d="M 16257,11655 L 15094,11655 15094,9475 17420,9475 17420,11655 16257,11655 Z"/>
       </g>
      </g>
      <g class="com.sun.star.drawing.CustomShape">
       <g id="id9">
        <path fill="none" stroke="rgb(0,0,0)" stroke-width="51" d="M 17129,18632 L 746,18632 746,754 33512,754 33512,18632 17129,18632 Z"/>
       </g>
      </g>
      <g class="com.sun.star.drawing.CustomShape">
       <g id="id10">
        <path fill="none" stroke="rgb(0,0,0)" stroke-width="51" d="M 17129,754 L 746,754 746,-5350 33512,-5350 33512,754 17129,754 Z"/>
       </g>
      </g>
      <g class="com.sun.star.drawing.CustomShape">
       <g id="id11">
        <path fill="rgb(0,0,0)" stroke="none" d="M 17227,754 L 17226,754 17226,-5350 17228,-5350 17228,754 17227,754 Z"/>
        <path fill="none" stroke="rgb(0,0,0)" stroke-width="51" d="M 17227,754 L 17226,754 17226,-5350 17228,-5350 17228,754 17227,754 Z"/>
       </g>
      </g>
      <g class="com.sun.star.drawing.ClosedBezierShape">
       <g id="id12">
        <path fill="rgb(114,159,207)" stroke="none" d="M 940,-2298 C 3956,-2298 3424,-5132 3424,-5132 L 940,-5132 940,-4955 940,-2298 Z"/>
        <path fill="none" stroke="rgb(52,101,175)" d="M 940,-2298 C 3956,-2298 3424,-5132 3424,-5132 L 940,-5132 940,-4955 940,-2298 Z"/>
       </g>
      </g>
      <g class="com.sun.star.drawing.ClosedBezierShape">
       <g id="id13">
        <path fill="rgb(114,159,207)" stroke="none" d="M 940,-2080 C 3957,-2080 3424,754 3424,754 L 940,754 940,578 940,-2080 Z"/>
        <path fill="none" stroke="rgb(52,101,175)" d="M 940,-2080 C 3957,-2080 3424,754 3424,754 L 940,754 940,578 940,-2080 Z"/>
       </g>
      </g>
      <g class="com.sun.star.drawing.ClosedBezierShape">
       <g id="id14">
        <path fill="rgb(114,159,207)" stroke="none" d="M 14997,3153 C 17202,3153 16812,972 16812,972 L 14997,972 14997,1108 14997,3153 Z"/>
        <path fill="none" stroke="rgb(52,101,175)" d="M 14997,3153 C 17202,3153 16812,972 16812,972 L 14997,972 14997,1108 14997,3153 Z"/>
       </g>
      </g>
      <g class="com.sun.star.drawing.ClosedBezierShape">
       <g id="id15">
        <path fill="rgb(114,159,207)" stroke="none" d="M 11313,3153 C 13518,3153 13128,972 13128,972 L 11313,972 11313,1108 11313,3153 Z"/>
        <path fill="none" stroke="rgb(52,101,175)" d="M 11313,3153 C 13518,3153 13128,972 13128,972 L 11313,972 11313,1108 11313,3153 Z"/>
       </g>
      </g>
      <g class="com.sun.star.drawing.ClosedBezierShape">
       <g id="id16">
        <path fill="rgb(114,159,207)" stroke="none" d="M 14996,3153 C 12793,3153 13181,972 13181,972 L 14996,972 14996,1108 14996,3153 Z"/>
        <path fill="none" stroke="rgb(52,101,175)" d="M 14996,3153 C 12793,3153 13181,972 13181,972 L 14996,972 14996,1108 14996,3153 Z"/>
       </g>
      </g>
      <g class="com.sun.star.drawing.ClosedBezierShape">
       <g id="id17">
        <path fill="rgb(114,159,207)" stroke="none" d="M 15286,20812 C 13083,20812 13471,18632 13471,18632 L 15286,18632 15286,18767 15286,20812 Z"/>
        <path fill="none" stroke="rgb(52,101,175)" d="M 15286,20812 C 13083,20812 13471,18632 13471,18632 L 15286,18632 15286,18767 15286,20812 Z"/>
       </g>
      </g>
      <g class="com.sun.star.drawing.ClosedBezierShape">
       <g id="id18">
        <path fill="rgb(114,159,207)" stroke="none" d="M 17226,9693 C 15601,9693 15888,7949 15888,7949 L 17226,7949 17226,8059 17226,9693 Z"/>
        <path fill="none" stroke="rgb(52,101,175)" d="M 17226,9693 C 15601,9693 15888,7949 15888,7949 L 17226,7949 17226,8059 17226,9693 Z"/>
       </g>
      </g>
      <g class="com.sun.star.drawing.ClosedBezierShape">
       <g id="id19">
        <path fill="rgb(114,159,207)" stroke="none" d="M 17226,6205 C 15601,6205 15888,4461 15888,4461 L 17226,4461 17226,4571 17226,6205 Z"/>
        <path fill="none" stroke="rgb(52,101,175)" d="M 17226,6205 C 15601,6205 15888,4461 15888,4461 L 17226,4461 17226,4571 17226,6205 Z"/>
       </g>
      </g>
      <g class="com.sun.star.drawing.ClosedBezierShape">
       <g id="id20">
        <path fill="rgb(114,159,207)" stroke="none" d="M 17226,2717 C 15601,2717 15888,4461 15888,4461 L 17226,4461 17226,4353 17226,2717 Z"/>
        <path fill="none" stroke="rgb(52,101,175)" d="M 17226,2717 C 15601,2717 15888,4461 15888,4461 L 17226,4461 17226,4353 17226,2717 Z"/>
       </g>
      </g>
      <g class="com.sun.star.drawing.ClosedBezierShape">
       <g id="id21">
        <path fill="rgb(114,159,207)" stroke="none" d="M 17226,6205 C 15602,6205 15889,7949 15889,7949 L 17226,7949 17226,7839 17226,6205 Z"/>
        <path fill="none" stroke="rgb(52,101,175)" d="M 17226,6205 C 15602,6205 15889,7949 15889,7949 L 17226,7949 17226,7839 17226,6205 Z"/>
       </g>
      </g>
      <g class="com.sun.star.drawing.CustomShape">
       <g id="id22">
        <path fill="rgb(102,255,255)" stroke="none" d="M 18389,11655 L 17226,11655 17226,8821 19552,8821 19552,11655 18389,11655 Z"/>
        <path fill="none" stroke="rgb(52,101,175)" d="M 18389,11655 L 17226,11655 17226,8821 19552,8821 19552,11655 18389,11655 Z"/>
       </g>
      </g>
      <g class="com.sun.star.drawing.CustomShape">
       <g id="id23">
        <path fill="rgb(114,159,207)" stroke="none" d="M 19553,18631 L 19552,18631 19552,11654 19554,11654 19554,18631 19553,18631 Z"/>
        <path fill="none" stroke="rgb(0,0,0)" stroke-width="51" d="M 19553,18631 L 19552,18631 19552,11654 19554,11654 19554,18631 19553,18631 Z"/>
       </g>
      </g>
      <g class="com.sun.star.drawing.CustomShape">
       <g id="id24">
        <path fill="rgb(114,159,207)" stroke="none" d="M 17323,4460 L 17226,4460 17226,754 17420,754 17420,4460 17323,4460 Z"/>
        <path fill="none" stroke="rgb(0,0,0)" stroke-width="51" d="M 17323,4460 L 17226,4460 17226,754 17420,754 17420,4460 17323,4460 Z"/>
       </g>
      </g>
      <g class="com.sun.star.drawing.CustomShape">
       <g id="id25">
        <path fill="rgb(114,159,207)" stroke="none" d="M 17420,8603 L 17419,8603 17419,7949 17420,7949 17420,8603 17420,8603 Z"/>
        <path fill="none" stroke="rgb(0,0,0)" stroke-width="51" d="M 17420,8603 L 17419,8603 17419,7949 17420,7949 17420,8603 17420,8603 Z"/>
       </g>
      </g>
      <g class="com.sun.star.drawing.ClosedBezierShape">
       <g id="id26">
        <path fill="rgb(114,159,207)" stroke="none" d="M 19843,3153 C 17640,3153 18028,972 18028,972 L 19843,972 19843,1108 19843,3153 Z"/>
        <path fill="none" stroke="rgb(52,101,175)" d="M 19843,3153 C 17640,3153 18028,972 18028,972 L 19843,972 19843,1108 19843,3153 Z"/>
       </g>
      </g>
      <g class="com.sun.star.drawing.ClosedBezierShape">
       <g id="id27">
        <path fill="rgb(114,159,207)" stroke="none" d="M 11314,3153 C 9111,3153 9498,972 9498,972 L 11314,972 11314,1108 11314,3153 Z"/>
        <path fill="none" stroke="rgb(52,101,175)" d="M 11314,3153 C 9111,3153 9498,972 9498,972 L 11314,972 11314,1108 11314,3153 Z"/>
       </g>
      </g>
      <g class="com.sun.star.drawing.ClosedBezierShape">
       <g id="id28">
        <path fill="rgb(102,255,255)" stroke="none" d="M 17129,11655 C 14926,11655 15313,9475 15313,9475 L 17129,9475 17129,9611 17129,11655 Z"/>
        <path fill="none" stroke="rgb(52,101,175)" d="M 17129,11655 C 14926,11655 15313,9475 15313,9475 L 17129,9475 17129,9611 17129,11655 Z"/>
       </g>
      </g>
      <g class="com.sun.star.drawing.CustomShape">
       <g id="id29">
        <path fill="rgb(102,255,153)" stroke="none" d="M 1489,1190 C 1311,1190 1134,1367 1134,1545 L 1134,18059 C 1134,18237 1311,18415 1489,18415 L 2911,18415 C 3089,18415 3267,18237 3267,18059 L 3267,1545 C 3267,1367 3089,1190 2911,1190 L 1489,1190 Z M 1134,1190 L 1134,1190 Z M 3267,18415 L 3267,18415 Z"/>
        <path fill="none" stroke="rgb(255,255,0)" d="M 1489,1190 C 1311,1190 1134,1367 1134,1545 L 1134,18059 C 1134,18237 1311,18415 1489,18415 L 2911,18415 C 3089,18415 3267,18237 3267,18059 L 3267,1545 C 3267,1367 3089,1190 2911,1190 L 1489,1190 Z"/>
        <path fill="none" stroke="rgb(255,255,0)" d="M 1134,1190 L 1134,1190 Z"/>
        <path fill="none" stroke="rgb(255,255,0)" d="M 3267,18415 L 3267,18415 Z"/>
       </g>
      </g>
      <g class="com.sun.star.drawing.CustomShape">
       <g id="id30">
        <path fill="rgb(255,51,153)" stroke="none" d="M 1165,8167 C 1052,8167 939,8280 939,8393 L 939,10993 C 939,11106 1052,11220 1165,11220 L 2070,11220 C 2183,11220 2297,11106 2297,10993 L 2297,8393 C 2297,8280 2183,8167 2070,8167 L 1165,8167 Z M 939,8167 L 939,8167 Z M 2297,11220 L 2297,11220 Z"/>
        <path fill="none" stroke="rgb(255,255,0)" d="M 1165,8167 C 1052,8167 939,8280 939,8393 L 939,10993 C 939,11106 1052,11220 1165,11220 L 2070,11220 C 2183,11220 2297,11106 2297,10993 L 2297,8393 C 2297,8280 2183,8167 2070,8167 L 1165,8167 Z"/>
        <path fill="none" stroke="rgb(255,255,0)" d="M 939,8167 L 939,8167 Z"/>
        <path fill="none" stroke="rgb(255,255,0)" d="M 2297,11220 L 2297,11220 Z"/>
       </g>
      </g>
      <g class="com.sun.star.drawing.CustomShape">
       <g id="id31">
        <path fill="rgb(255,51,153)" stroke="none" d="M 9726,16890 C 9599,16890 9472,17017 9472,17144 L 9472,18162 C 9472,18289 9599,18417 9726,18417 L 12126,18417 C 12253,18417 12380,18289 12380,18162 L 12380,17144 C 12380,17017 12253,16890 12126,16890 L 9726,16890 Z M 9472,16890 L 9472,16890 Z M 12381,18417 L 12381,18417 Z"/>
        <path fill="none" stroke="rgb(255,255,0)" d="M 9726,16890 C 9599,16890 9472,17017 9472,17144 L 9472,18162 C 9472,18289 9599,18417 9726,18417 L 12126,18417 C 12253,18417 12380,18289 12380,18162 L 12380,17144 C 12380,17017 12253,16890 12126,16890 L 9726,16890 Z"/>
        <path fill="none" stroke="rgb(255,255,0)" d="M 9472,16890 L 9472,16890 Z"/>
        <path fill="none" stroke="rgb(255,255,0)" d="M 12381,18417 L 12381,18417 Z"/>
       </g>
      </g>
      <g class="com.sun.star.drawing.CustomShape">
       <g id="id32">
        <path fill="rgb(102,255,102)" stroke="none" d="M 16289,11872 C 15982,11872 15675,12179 15675,12486 L 15675,17581 C 15675,17888 15982,18196 16289,18196 L 18745,18196 C 19052,18196 19360,17888 19360,17581 L 19360,12486 C 19360,12179 19052,11872 18745,11872 L 16289,11872 Z M 15675,11872 L 15675,11872 Z M 19360,18196 L 19360,18196 Z"/>
        <path fill="none" stroke="rgb(255,255,0)" d="M 16289,11872 C 15982,11872 15675,12179 15675,12486 L 15675,17581 C 15675,17888 15982,18196 16289,18196 L 18745,18196 C 19052,18196 19360,17888 19360,17581 L 19360,12486 C 19360,12179 19052,11872 18745,11872 L 16289,11872 Z"/>
        <path fill="none" stroke="rgb(255,255,0)" d="M 15675,11872 L 15675,11872 Z"/>
        <path fill="none" stroke="rgb(255,255,0)" d="M 19360,18196 L 19360,18196 Z"/>
       </g>
      </g>
      <g class="com.sun.star.drawing.CustomShape">
       <g id="id33">
        <path fill="rgb(204,153,0)" stroke="none" d="M 21078,972 C 20896,972 20715,1153 20715,1335 L 20715,2789 C 20715,2971 20896,3153 21078,3153 L 31015,3153 C 31197,3153 31379,2971 31379,2789 L 31379,1335 C 31379,1153 31197,972 31015,972 L 21078,972 Z M 20715,972 L 20715,972 Z M 31379,3153 L 31379,3153 Z"/>
        <path fill="none" stroke="rgb(255,255,0)" d="M 21078,972 C 20896,972 20715,1153 20715,1335 L 20715,2789 C 20715,2971 20896,3153 21078,3153 L 31015,3153 C 31197,3153 31379,2971 31379,2789 L 31379,1335 C 31379,1153 31197,972 31015,972 L 21078,972 Z"/>
        <path fill="none" stroke="rgb(255,255,0)" d="M 20715,972 L 20715,972 Z"/>
        <path fill="none" stroke="rgb(255,255,0)" d="M 31379,3153 L 31379,3153 Z"/>
       </g>
      </g>
      <g class="com.sun.star.drawing.CustomShape">
       <g id="id34">
        <path fill="rgb(0,0,255)" stroke="none" d="M 2865,1409 C 2483,1409 2102,1790 2102,2172 L 2102,5224 C 2102,5606 2483,5988 2865,5988 L 9870,5988 C 10252,5988 10634,5606 10634,5224 L 10634,2172 C 10634,1790 10252,1409 9870,1409 L 2865,1409 Z M 2102,1409 L 2102,1409 Z M 10634,5988 L 10634,5988 Z"/>
        <path fill="none" stroke="rgb(255,255,0)" d="M 2865,1409 C 2483,1409 2102,1790 2102,2172 L 2102,5224 C 2102,5606 2483,5988 2865,5988 L 9870,5988 C 10252,5988 10634,5606 10634,5224 L 10634,2172 C 10634,1790 10252,1409 9870,1409 L 2865,1409 Z"/>
        <path fill="none" stroke="rgb(255,255,0)" d="M 2102,1409 L 2102,1409 Z"/>
        <path fill="none" stroke="rgb(255,255,0)" d="M 10634,5988 L 10634,5988 Z"/>
       </g>
      </g>
     </g>
     <g class="com.sun.star.drawing.CustomShape">
      <g id="id35">
       <path fill="rgb(128,128,128)" stroke="none" d="M 11096,9456 L 10016,9456 10016,6588 12175,6588 12175,9456 11096,9456 Z"/>
       <path fill="none" stroke="rgb(52,101,175)" d="M 11096,9456 L 10016,9456 10016,6588 12175,6588 12175,9456 11096,9456 Z"/>
      </g>
     </g>
     <g class="com.sun.star.drawing.CustomShape">
      <g id="id36">
       <path fill="rgb(128,128,128)" stroke="none" d="M 2079,4555 L 999,4555 999,1126 3158,1126 3158,4555 2079,4555 Z"/>
       <path fill="none" stroke="rgb(52,101,175)" d="M 2079,4555 L 999,4555 999,1126 3158,1126 3158,4555 2079,4555 Z"/>
      </g>
     </g>
     <g class="com.sun.star.drawing.CustomShape">
      <g id="id37">
       <path fill="rgb(128,128,128)" stroke="none" d="M 8810,9456 L 7730,9456 7730,6588 9889,6588 9889,9456 8810,9456 Z"/>
       <path fill="none" stroke="rgb(52,101,175)" d="M 8810,9456 L 7730,9456 7730,6588 9889,6588 9889,9456 8810,9456 Z"/>
      </g>
     </g>
     <g class="com.sun.star.drawing.CustomShape">
      <g id="id38">
       <path fill="rgb(128,128,128)" stroke="none" d="M 11096,15425 L 10016,15425 10016,12557 12175,12557 12175,15425 11096,15425 Z"/>
       <path fill="none" stroke="rgb(52,101,175)" d="M 11096,15425 L 10016,15425 10016,12557 12175,12557 12175,15425 11096,15425 Z"/>
      </g>
     </g>
     <g class="com.sun.star.drawing.CustomShape">
      <g id="id39">
       <path fill="rgb(128,128,128)" stroke="none" d="M 8810,15425 L 7730,15425 7730,12557 9889,12557 9889,15425 8810,15425 Z"/>
       <path fill="none" stroke="rgb(52,101,175)" d="M 8810,15425 L 7730,15425 7730,12557 9889,12557 9889,15425 8810,15425 Z"/>
      </g>
     </g>
     <g class="com.sun.star.drawing.CustomShape">
      <g id="id40">
       <path fill="rgb(128,128,128)" stroke="none" d="M 2079,8111 L 999,8111 999,4682 3158,4682 3158,8111 2079,8111 Z"/>
       <path fill="none" stroke="rgb(52,101,175)" d="M 2079,8111 L 999,8111 999,4682 3158,4682 3158,8111 2079,8111 Z"/>
      </g>
     </g>
     <g class="com.sun.star.drawing.CustomShape">
      <g id="id41">
       <path fill="rgb(128,128,128)" stroke="none" d="M 9890,6461 L 7350,6461 7350,5191 12430,5191 12430,6461 9890,6461 Z"/>
       <path fill="none" stroke="rgb(52,101,175)" d="M 9890,6461 L 7350,6461 7350,5191 12430,5191 12430,6461 9890,6461 Z"/>
      </g>
     </g>
     <g class="com.sun.star.drawing.CustomShape">
      <g id="id42">
       <path fill="rgb(128,128,128)" stroke="none" d="M 9890,5064 L 7350,5064 7350,3794 12430,3794 12430,5064 9890,5064 Z"/>
       <path fill="none" stroke="rgb(52,101,175)" d="M 9890,5064 L 7350,5064 7350,3794 12430,3794 12430,5064 9890,5064 Z"/>
      </g>
     </g>
     <g class="com.sun.star.drawing.CustomShape">
      <g id="id43">
       <path fill="rgb(128,128,128)" stroke="none" d="M 11097,12430 L 10017,12430 10017,9562 12176,9562 12176,12430 11097,12430 Z"/>
       <path fill="none" stroke="rgb(52,101,175)" d="M 11097,12430 L 10017,12430 10017,9562 12176,9562 12176,12430 11097,12430 Z"/>
      </g>
     </g>
     <g class="com.sun.star.drawing.CustomShape">
      <g id="id44">
       <path fill="rgb(128,128,128)" stroke="none" d="M 8811,12430 L 7731,12430 7731,9562 9890,9562 9890,12430 8811,12430 Z"/>
       <path fill="none" stroke="rgb(52,101,175)" d="M 8811,12430 L 7731,12430 7731,9562 9890,9562 9890,12430 8811,12430 Z"/>
      </g>
     </g>
     <g class="com.sun.star.drawing.CustomShape">
      <g id="id45">
       <path fill="rgb(128,128,128)" stroke="none" d="M 4429,14208 C 5077,14208 5572,14703 5572,15351 5572,15999 5077,16494 4429,16494 3781,16494 3286,15999 3286,15351 3286,14703 3781,14208 4429,14208 Z M 3286,14208 L 3286,14208 Z M 5573,16495 L 5573,16495 Z"/>
       <path fill="none" stroke="rgb(52,101,175)" d="M 4429,14208 C 5077,14208 5572,14703 5572,15351 5572,15999 5077,16494 4429,16494 3781,16494 3286,15999 3286,15351 3286,14703 3781,14208 4429,14208 Z"/>
       <path fill="none" stroke="rgb(52,101,175)" d="M 3286,14208 L 3286,14208 Z"/>
       <path fill="none" stroke="rgb(52,101,175)" d="M 5573,16495 L 5573,16495 Z"/>
      </g>
     </g>
     <g class="com.sun.star.drawing.CustomShape">
      <g id="id46">
       <path fill="rgb(204,204,204)" stroke="none" d="M 4556,18271 L 1381,18271 1381,16620 7731,16620 7731,18271 4556,18271 Z"/>
       <path fill="none" stroke="rgb(52,101,175)" d="M 4556,18271 L 1381,18271 1381,16620 7731,16620 7731,18271 4556,18271 Z"/>
      </g>
     </g>
     <g class="com.sun.star.drawing.CustomShape">
      <g id="id47">
       <path fill="rgb(204,204,204)" stroke="none" d="M 2079,14970 L 1126,14970 1126,12684 3031,12684 3031,14970 2079,14970 Z"/>
       <path fill="none" stroke="rgb(52,101,175)" d="M 2079,14970 L 1126,14970 1126,12684 3031,12684 3031,14970 2079,14970 Z"/>
      </g>
     </g>
     <g class="com.sun.star.drawing.CustomShape">
      <g id="id48">
       <path fill="rgb(51,51,51)" stroke="none" d="M 2206,11033 L 999,11033 999,8493 3412,8493 3412,11033 2206,11033 Z"/>
       <path fill="none" stroke="rgb(52,101,175)" d="M 2206,11033 L 999,11033 999,8493 3412,8493 3412,11033 2206,11033 Z"/>
      </g>
     </g>
     <g class="com.sun.star.drawing.CustomShape">
      <g id="id49">
       <path fill="rgb(51,51,51)" stroke="none" d="M 10652,18144 L 9128,18144 9128,16747 12176,16747 12176,18144 10652,18144 Z"/>
       <path fill="none" stroke="rgb(52,101,175)" d="M 10652,18144 L 9128,18144 9128,16747 12176,16747 12176,18144 10652,18144 Z"/>
      </g>
     </g>
    </g>
   </g>
  </g>
 </g>
</svg>