<?xml version="1.0" encoding="UTF-8"?>
<!DOCTYPE svg PUBLIC "-//W3C//DTD SVG 1.1//EN" "http://www.w3.org/Graphics/SVG/1.1/DTD/svg11.dtd">
<svg version="1.2" width="297mm" height="210mm" viewBox="0 0 29700 21000" preserveAspectRatio="xMidYMid" fill-rule="evenodd" clip-path="url(#presentation_clip_path)" stroke-width="28.222" stroke-linejoin="round" xmlns="http://www.w3.org/2000/svg" xmlns:ooo="http://xml.openoffice.org/svg/export" xmlns:xlink="http://www.w3.org/1999/xlink" xml:space="preserve">
 <defs class="ClipPathGroup">
  <clipPath id="presentation_clip_path" clipPathUnits="userSpaceOnUse">
   <rect x="0" y="0" width="29700" height="21000"/>
  </clipPath>
 </defs>
 <defs class="TextShapeIndex">
  <g ooo:slide="id1" ooo:id-list="id3 id4 id5 id6 id7 id8 id9 id10 id11 id12 id13 id14 id15 id16 id17 id18 id19 id20 id21 id22 id23 id24 id25 id26 id27 id28 id29 id30 id31 id32 id33 id34"/>
 </defs>
 <defs class="EmbeddedBulletChars">
  <g id="bullet-char-template(57356)" transform="scale(0.00048828125,-0.00048828125)">
   <path d="M 580,1141 L 1163,571 580,0 -4,571 580,1141 Z"/>
  </g>
  <g id="bullet-char-template(57354)" transform="scale(0.00048828125,-0.00048828125)">
   <path d="M 8,1128 L 1137,1128 1137,0 8,0 8,1128 Z"/>
  </g>
  <g id="bullet-char-template(10146)" transform="scale(0.00048828125,-0.00048828125)">
   <path d="M 174,0 L 602,739 174,1481 1456,739 174,0 Z M 1358,739 L 309,1346 659,739 1358,739 Z"/>
  </g>
  <g id="bullet-char-template(10132)" transform="scale(0.00048828125,-0.00048828125)">
   <path d="M 2015,739 L 1276,0 717,0 1260,543 174,543 174,936 1260,936 717,1481 1274,1481 2015,739 Z"/>
  </g>
  <g id="bullet-char-template(10007)" transform="scale(0.00048828125,-0.00048828125)">
   <path d="M 0,-2 C -7,14 -16,27 -25,37 L 356,567 C 262,823 215,952 215,954 215,979 228,992 255,992 264,992 276,990 289,987 310,991 331,999 354,1012 L 381,999 492,748 772,1049 836,1024 860,1049 C 881,1039 901,1025 922,1006 886,937 835,863 770,784 769,783 710,716 594,584 L 774,223 C 774,196 753,168 711,139 L 727,119 C 717,90 699,76 672,76 641,76 570,178 457,381 L 164,-76 C 142,-110 111,-127 72,-127 30,-127 9,-110 8,-76 1,-67 -2,-52 -2,-32 -2,-23 -1,-13 0,-2 Z"/>
  </g>
  <g id="bullet-char-template(10004)" transform="scale(0.00048828125,-0.00048828125)">
   <path d="M 285,-33 C 182,-33 111,30 74,156 52,228 41,333 41,471 41,549 55,616 82,672 116,743 169,778 240,778 293,778 328,747 346,684 L 369,508 C 377,444 397,411 428,410 L 1163,1116 C 1174,1127 1196,1133 1229,1133 1271,1133 1292,1118 1292,1087 L 1292,965 C 1292,929 1282,901 1262,881 L 442,47 C 390,-6 338,-33 285,-33 Z"/>
  </g>
  <g id="bullet-char-template(9679)" transform="scale(0.00048828125,-0.00048828125)">
   <path d="M 813,0 C 632,0 489,54 383,161 276,268 223,411 223,592 223,773 276,916 383,1023 489,1130 632,1184 813,1184 992,1184 1136,1130 1245,1023 1353,916 1407,772 1407,592 1407,412 1353,268 1245,161 1136,54 992,0 813,0 Z"/>
  </g>
  <g id="bullet-char-template(8226)" transform="scale(0.00048828125,-0.00048828125)">
   <path d="M 346,457 C 273,457 209,483 155,535 101,586 74,649 74,723 74,796 101,859 155,911 209,963 273,989 346,989 419,989 480,963 531,910 582,859 608,796 608,723 608,648 583,586 532,535 482,483 420,457 346,457 Z"/>
  </g>
  <g id="bullet-char-template(8211)" transform="scale(0.00048828125,-0.00048828125)">
   <path d="M -4,459 L 1135,459 1135,606 -4,606 -4,459 Z"/>
  </g>
 </defs>
 <defs class="TextEmbeddedBitmaps"/>
 <g>
  <g id="id2" class="Master_Slide">
   <g id="bg-id2" class="Background"/>
   <g id="bo-id2" class="BackgroundObjects"/>
  </g>
 </g>
 <g class="SlideGroup">
  <g>
   <g id="id1" class="Slide" clip-path="url(#presentation_clip_path)">
    <g class="Page">
     <g class="com.sun.star.drawing.CustomShape">
      <g id="id3">
       <path fill="rgb(255,255,0)" stroke="none" d="M -4305,-693 L -13986,-693 -13986,-3734 5376,-3734 5376,-693 -4305,-693 Z"/>
       <path fill="none" stroke="rgb(255,255,0)" d="M -4305,-693 L -13986,-693 -13986,-3734 5376,-3734 5376,-693 -4305,-693 Z"/>
      </g>
     </g>
     <g class="com.sun.star.drawing.CustomShape">
      <g id="id4">
       <path fill="rgb(255,255,0)" stroke="none" d="M 2191,710 L -229,710 -229,-5371 4611,-5371 4611,710 2191,710 Z"/>
       <path fill="none" stroke="rgb(255,255,0)" d="M 2191,710 L -229,710 -229,-5371 4611,-5371 4611,710 2191,710 Z"/>
      </g>
     </g>
     <g class="com.sun.star.drawing.CustomShape">
      <g id="id5">
       <path fill="rgb(255,255,0)" stroke="none" d="M 3592,6792 L 25,6792 25,1178 7158,1178 7158,6792 3592,6792 Z"/>
       <path fill="none" stroke="rgb(255,255,0)" d="M 3592,6792 L 25,6792 25,1178 7158,1178 7158,6792 3592,6792 Z"/>
      </g>
     </g>
     <g class="com.sun.star.drawing.CustomShape">
      <g id="id6">
       <path fill="rgb(255,255,0)" stroke="none" d="M 9706,6792 L 7667,6792 7667,1178 11744,1178 11744,6792 9706,6792 Z"/>
       <path fill="none" stroke="rgb(255,255,0)" d="M 9706,6792 L 7667,6792 7667,1178 11744,1178 11744,6792 9706,6792 Z"/>
      </g>
     </g>
     <g class="com.sun.star.drawing.CustomShape">
      <g id="id7">
       <path fill="rgb(255,255,0)" stroke="none" d="M 3379,19986 L 1850,19986 1850,6654 4907,6654 4907,19986 3379,19986 Z"/>
       <path fill="none" stroke="rgb(255,255,0)" d="M 3379,19986 L 1850,19986 1850,6654 4907,6654 4907,19986 3379,19986 Z"/>
      </g>
     </g>
     <g class="com.sun.star.drawing.CustomShape">
      <g id="id8">
       <path fill="rgb(255,255,0)" stroke="none" d="M 6139,12640 L 4610,12640 4610,10300 7667,10300 7667,12640 6139,12640 Z"/>
       <path fill="none" stroke="rgb(255,255,0)" d="M 6139,12640 L 4610,12640 4610,10300 7667,10300 7667,12640 6139,12640 Z"/>
      </g>
     </g>
     <g class="com.sun.star.drawing.CustomShape">
      <g id="id9">
       <path fill="none" stroke="rgb(0,0,0)" stroke-width="51" d="M 7286,20123 L -14241,20123 -14241,944 28812,944 28812,20123 7286,20123 Z"/>
      </g>
     </g>
     <g class="com.sun.star.drawing.CustomShape">
      <g id="id10">
       <path fill="none" stroke="rgb(0,0,0)" stroke-width="51" d="M 7286,944 L -14241,944 -14241,-5605 28812,-5605 28812,944 7286,944 Z"/>
      </g>
     </g>
     <g class="com.sun.star.drawing.CustomShape">
      <g id="id11">
       <path fill="rgb(0,0,0)" stroke="none" d="M 7415,944 L 7414,944 7414,-5605 7416,-5605 7416,944 7415,944 Z"/>
       <path fill="none" stroke="rgb(0,0,0)" stroke-width="51" d="M 7415,944 L 7414,944 7414,-5605 7416,-5605 7416,944 7415,944 Z"/>
      </g>
     </g>
     <g class="com.sun.star.drawing.ClosedBezierShape">
      <g id="id12">
       <path fill="rgb(114,159,207)" stroke="none" d="M -13985,-2330 C -10022,-2330 -10721,-5370 -10721,-5370 L -13985,-5370 -13985,-5180 -13985,-2330 Z"/>
       <path fill="none" stroke="rgb(52,101,175)" d="M -13985,-2330 C -10022,-2330 -10721,-5370 -10721,-5370 L -13985,-5370 -13985,-5180 -13985,-2330 Z"/>
      </g>
     </g>
     <g class="com.sun.star.drawing.ClosedBezierShape">
      <g id="id13">
       <path fill="rgb(114,159,207)" stroke="none" d="M -13985,-2096 C -10022,-2096 -10721,945 -10721,945 L -13985,945 -13985,755 -13985,-2096 Z"/>
       <path fill="none" stroke="rgb(52,101,175)" d="M -13985,-2096 C -10022,-2096 -10721,945 -10721,945 L -13985,945 -13985,755 -13985,-2096 Z"/>
      </g>
     </g>
     <g class="com.sun.star.drawing.ClosedBezierShape">
      <g id="id14">
       <path fill="rgb(114,159,207)" stroke="none" d="M 4484,3518 C 7381,3518 6869,1179 6869,1179 L 4484,1179 4484,1325 4484,3518 Z"/>
       <path fill="none" stroke="rgb(52,101,175)" d="M 4484,3518 C 7381,3518 6869,1179 6869,1179 L 4484,1179 4484,1325 4484,3518 Z"/>
      </g>
     </g>
     <g class="com.sun.star.drawing.ClosedBezierShape">
      <g id="id15">
       <path fill="rgb(114,159,207)" stroke="none" d="M -356,3518 C 2540,3518 2029,1179 2029,1179 L -356,1179 -356,1325 -356,3518 Z"/>
       <path fill="none" stroke="rgb(52,101,175)" d="M -356,3518 C 2540,3518 2029,1179 2029,1179 L -356,1179 -356,1325 -356,3518 Z"/>
      </g>
     </g>
     <g class="com.sun.star.drawing.ClosedBezierShape">
      <g id="id16">
       <path fill="rgb(114,159,207)" stroke="none" d="M 4484,3518 C 1588,3518 2099,1179 2099,1179 L 4484,1179 4484,1325 4484,3518 Z"/>
       <path fill="none" stroke="rgb(52,101,175)" d="M 4484,3518 C 1588,3518 2099,1179 2099,1179 L 4484,1179 4484,1325 4484,3518 Z"/>
      </g>
     </g>
     <g class="com.sun.star.drawing.ClosedBezierShape">
      <g id="id17">
       <path fill="rgb(114,159,207)" stroke="none" d="M 4865,22463 C 1969,22463 2480,20124 2480,20124 L 4865,20124 4865,20270 4865,22463 Z"/>
       <path fill="none" stroke="rgb(52,101,175)" d="M 4865,22463 C 1969,22463 2480,20124 2480,20124 L 4865,20124 4865,20270 4865,22463 Z"/>
      </g>
     </g>
     <g class="com.sun.star.drawing.ClosedBezierShape">
      <g id="id18">
       <path fill="rgb(114,159,207)" stroke="none" d="M 7414,10535 C 5280,10535 5656,8663 5656,8663 L 7414,8663 7414,8780 7414,10535 Z"/>
       <path fill="none" stroke="rgb(52,101,175)" d="M 7414,10535 C 5280,10535 5656,8663 5656,8663 L 7414,8663 7414,8780 7414,10535 Z"/>
      </g>
     </g>
     <g class="com.sun.star.drawing.ClosedBezierShape">
      <g id="id19">
       <path fill="rgb(114,159,207)" stroke="none" d="M 7414,6792 C 5280,6792 5656,4921 5656,4921 L 7414,4921 7414,5038 7414,6792 Z"/>
       <path fill="none" stroke="rgb(52,101,175)" d="M 7414,6792 C 5280,6792 5656,4921 5656,4921 L 7414,4921 7414,5038 7414,6792 Z"/>
      </g>
     </g>
     <g class="com.sun.star.drawing.ClosedBezierShape">
      <g id="id20">
       <path fill="rgb(114,159,207)" stroke="none" d="M 7414,3050 C 5280,3050 5656,4921 5656,4921 L 7414,4921 7414,4804 7414,3050 Z"/>
       <path fill="none" stroke="rgb(52,101,175)" d="M 7414,3050 C 5280,3050 5656,4921 5656,4921 L 7414,4921 7414,4804 7414,3050 Z"/>
      </g>
     </g>
     <g class="com.sun.star.drawing.ClosedBezierShape">
      <g id="id21">
       <path fill="rgb(114,159,207)" stroke="none" d="M 7414,6792 C 5280,6792 5656,8663 5656,8663 L 7414,8663 7414,8546 7414,6792 Z"/>
       <path fill="none" stroke="rgb(52,101,175)" d="M 7414,6792 C 5280,6792 5656,8663 5656,8663 L 7414,8663 7414,8546 7414,6792 Z"/>
      </g>
     </g>
     <g class="com.sun.star.drawing.CustomShape">
      <g id="id22">
       <path fill="rgb(102,255,255)" stroke="none" d="M 8942,12639 L 7413,12639 7413,9598 10470,9598 10470,12639 8942,12639 Z"/>
       <path fill="none" stroke="rgb(52,101,175)" d="M 8942,12639 L 7413,12639 7413,9598 10470,9598 10470,12639 8942,12639 Z"/>
      </g>
     </g>
     <g class="com.sun.star.drawing.CustomShape">
      <g id="id23">
       <path fill="rgb(114,159,207)" stroke="none" d="M 10471,20124 L 10470,20124 10470,12640 10471,12640 10471,20124 10471,20124 Z"/>
       <path fill="none" stroke="rgb(0,0,0)" stroke-width="51" d="M 10471,20124 L 10470,20124 10470,12640 10471,12640 10471,20124 10471,20124 Z"/>
      </g>
     </g>
     <g class="com.sun.star.drawing.CustomShape">
      <g id="id24">
       <path fill="rgb(114,159,207)" stroke="none" d="M 7541,4921 L 7414,4921 7414,945 7668,945 7668,4921 7541,4921 Z"/>
       <path fill="none" stroke="rgb(0,0,0)" stroke-width="51" d="M 7541,4921 L 7414,4921 7414,945 7668,945 7668,4921 7541,4921 Z"/>
      </g>
     </g>
     <g class="com.sun.star.drawing.CustomShape">
      <g id="id25">
       <path fill="rgb(114,159,207)" stroke="none" d="M 7669,9364 L 7668,9364 7668,8663 7670,8663 7670,9364 7669,9364 Z"/>
       <path fill="none" stroke="rgb(0,0,0)" stroke-width="51" d="M 7669,9364 L 7668,9364 7668,8663 7670,8663 7670,9364 7669,9364 Z"/>
      </g>
     </g>
     <g class="com.sun.star.drawing.ClosedBezierShape">
      <g id="id26">
       <path fill="rgb(114,159,207)" stroke="none" d="M 10853,3518 C 7957,3518 8468,1179 8468,1179 L 10853,1179 10853,1325 10853,3518 Z"/>
       <path fill="none" stroke="rgb(52,101,175)" d="M 10853,3518 C 7957,3518 8468,1179 8468,1179 L 10853,1179 10853,1325 10853,3518 Z"/>
      </g>
     </g>
     <g class="com.sun.star.drawing.ClosedBezierShape">
      <g id="id27">
       <path fill="rgb(114,159,207)" stroke="none" d="M -354,3518 C -3250,3518 -2739,1179 -2739,1179 L -354,1179 -354,1325 -354,3518 Z"/>
       <path fill="none" stroke="rgb(52,101,175)" d="M -354,3518 C -3250,3518 -2739,1179 -2739,1179 L -354,1179 -354,1325 -354,3518 Z"/>
      </g>
     </g>
     <g class="com.sun.star.drawing.ClosedBezierShape">
      <g id="id28">
       <path fill="rgb(102,255,255)" stroke="none" d="M 7287,12640 C 4390,12640 4901,10301 4901,10301 L 7287,10301 7287,10447 7287,12640 Z"/>
       <path fill="none" stroke="rgb(52,101,175)" d="M 7287,12640 C 4390,12640 4901,10301 4901,10301 L 7287,10301 7287,10447 7287,12640 Z"/>
      </g>
     </g>
     <g class="com.sun.star.drawing.CustomShape">
      <g id="id29">
       <path fill="rgb(102,255,153)" stroke="none" d="M -13263,1412 C -13497,1412 -13730,1645 -13730,1879 L -13730,19422 C -13730,19656 -13497,19890 -13263,19890 L -11395,19890 C -11162,19890 -10928,19656 -10928,19422 L -10928,1879 C -10928,1645 -11162,1412 -11395,1412 L -13263,1412 Z M -13730,1412 L -13730,1412 Z M -10927,19890 L -10927,19890 Z"/>
       <path fill="none" stroke="rgb(255,255,0)" d="M -13263,1412 C -13497,1412 -13730,1645 -13730,1879 L -13730,19422 C -13730,19656 -13497,19890 -13263,19890 L -11395,19890 C -11162,19890 -10928,19656 -10928,19422 L -10928,1879 C -10928,1645 -11162,1412 -11395,1412 L -13263,1412 Z"/>
       <path fill="none" stroke="rgb(255,255,0)" d="M -13730,1412 L -13730,1412 Z"/>
       <path fill="none" stroke="rgb(255,255,0)" d="M -10927,19890 L -10927,19890 Z"/>
      </g>
     </g>
     <g class="com.sun.star.drawing.CustomShape">
      <g id="id30">
       <path fill="rgb(255,51,153)" stroke="none" d="M -13689,8896 C -13838,8896 -13986,9044 -13986,9193 L -13986,11874 C -13986,12023 -13838,12172 -13689,12172 L -12499,12172 C -12350,12172 -12201,12023 -12201,11874 L -12201,9193 C -12201,9044 -12350,8896 -12499,8896 L -13689,8896 Z M -13986,8896 L -13986,8896 Z M -12201,12172 L -12201,12172 Z"/>
       <path fill="none" stroke="rgb(255,255,0)" d="M -13689,8896 C -13838,8896 -13986,9044 -13986,9193 L -13986,11874 C -13986,12023 -13838,12172 -13689,12172 L -12499,12172 C -12350,12172 -12201,12023 -12201,11874 L -12201,9193 C -12201,9044 -12350,8896 -12499,8896 L -13689,8896 Z"/>
       <path fill="none" stroke="rgb(255,255,0)" d="M -13986,8896 L -13986,8896 Z"/>
       <path fill="none" stroke="rgb(255,255,0)" d="M -12201,12172 L -12201,12172 Z"/>
      </g>
     </g>
     <g class="com.sun.star.drawing.CustomShape">
      <g id="id31">
       <path fill="rgb(255,51,153)" stroke="none" d="M -2502,18254 C -2639,18254 -2775,18390 -2775,18527 L -2775,19619 C -2775,19756 -2639,19893 -2502,19893 L 774,19893 C 911,19893 1048,19756 1048,19619 L 1048,18527 C 1048,18390 911,18254 774,18254 L -2502,18254 Z M -2775,18254 L -2775,18254 Z M 1048,19893 L 1048,19893 Z"/>
       <path fill="none" stroke="rgb(255,255,0)" d="M -2502,18254 C -2639,18254 -2775,18390 -2775,18527 L -2775,19619 C -2775,19756 -2639,19893 -2502,19893 L 774,19893 C 911,19893 1048,19756 1048,19619 L 1048,18527 C 1048,18390 911,18254 774,18254 L -2502,18254 Z"/>
       <path fill="none" stroke="rgb(255,255,0)" d="M -2775,18254 L -2775,18254 Z"/>
       <path fill="none" stroke="rgb(255,255,0)" d="M 1048,19893 L 1048,19893 Z"/>
      </g>
     </g>
     <g class="com.sun.star.drawing.CustomShape">
      <g id="id32">
       <path fill="rgb(102,255,102)" stroke="none" d="M 6182,12873 C 5779,12873 5376,13276 5376,13679 L 5376,18851 C 5376,19254 5779,19657 6182,19657 L 9410,19657 C 9813,19657 10217,19254 10217,18851 L 10217,13679 C 10217,13276 9813,12873 9410,12873 L 6182,12873 Z M 5376,12873 L 5376,12873 Z M 10217,19658 L 10217,19658 Z"/>
       <path fill="none" stroke="rgb(255,255,0)" d="M 6182,12873 C 5779,12873 5376,13276 5376,13679 L 5376,18851 C 5376,19254 5779,19657 6182,19657 L 9410,19657 C 9813,19657 10217,19254 10217,18851 L 10217,13679 C 10217,13276 9813,12873 9410,12873 L 6182,12873 Z"/>
       <path fill="none" stroke="rgb(255,255,0)" d="M 5376,12873 L 5376,12873 Z"/>
       <path fill="none" stroke="rgb(255,255,0)" d="M 10217,19658 L 10217,19658 Z"/>
      </g>
     </g>
     <g class="com.sun.star.drawing.CustomShape">
      <g id="id33">
       <path fill="rgb(204,153,0)" stroke="none" d="M 12389,1178 C 12194,1178 11999,1373 11999,1568 L 11999,3128 C 11999,3323 12194,3519 12389,3519 L 25621,3519 C 25816,3519 26012,3323 26012,3128 L 26012,1568 C 26012,1373 25816,1178 25621,1178 L 12389,1178 Z M 11999,1178 L 11999,1178 Z M 26012,3519 L 26012,3519 Z"/>
       <path fill="none" stroke="rgb(255,255,0)" d="M 12389,1178 C 12194,1178 11999,1373 11999,1568 L 11999,3128 C 11999,3323 12194,3519 12389,3519 L 25621,3519 C 25816,3519 26012,3323 26012,3128 L 26012,1568 C 26012,1373 25816,1178 25621,1178 L 12389,1178 Z"/>
       <path fill="none" stroke="rgb(255,255,0)" d="M 11999,1178 L 11999,1178 Z"/>
       <path fill="none" stroke="rgb(255,255,0)" d="M 26012,3519 L 26012,3519 Z"/>
      </g>
     </g>
     <g class="com.sun.star.drawing.CustomShape">
      <g id="id34">
       <path fill="rgb(0,0,255)" stroke="none" d="M -11640,1647 C -12049,1647 -12458,2056 -12458,2465 L -12458,5741 C -12458,6150 -12049,6560 -11640,6560 L -2067,6560 C -1658,6560 -1248,6150 -1248,5741 L -1248,2465 C -1248,2056 -1658,1647 -2067,1647 L -11640,1647 Z M -12458,1647 L -12458,1647 Z M -1248,6560 L -1248,6560 Z"/>
       <path fill="none" stroke="rgb(255,255,0)" d="M -11640,1647 C -12049,1647 -12458,2056 -12458,2465 L -12458,5741 C -12458,6150 -12049,6560 -11640,6560 L -2067,6560 C -1658,6560 -1248,6150 -1248,5741 L -1248,2465 C -1248,2056 -1658,1647 -2067,1647 L -11640,1647 Z"/>
       <path fill="none" stroke="rgb(255,255,0)" d="M -12458,1647 L -12458,1647 Z"/>
       <path fill="none" stroke="rgb(255,255,0)" d="M -1248,6560 L -1248,6560 Z"/>
      </g>
     </g>
    </g>
   </g>
  </g>
 </g>
</svg>