<?xml version="1.0" encoding="UTF-8"?>
<!DOCTYPE svg PUBLIC "-//W3C//DTD SVG 1.1//EN" "http://www.w3.org/Graphics/SVG/1.1/DTD/svg11.dtd">
<svg version="1.2" width="297mm" height="210mm" viewBox="0 0 29700 21000" preserveAspectRatio="xMidYMid" fill-rule="evenodd" clip-path="url(#presentation_clip_path)" stroke-width="28.222" stroke-linejoin="round" xmlns="http://www.w3.org/2000/svg" xmlns:ooo="http://xml.openoffice.org/svg/export" xmlns:xlink="http://www.w3.org/1999/xlink" xml:space="preserve">
 <defs class="ClipPathGroup">
  <clipPath id="presentation_clip_path" clipPathUnits="userSpaceOnUse">
   <rect x="0" y="0" width="29700" height="21000"/>
  </clipPath>
 </defs>
 <defs class="TextShapeIndex">
  <g ooo:slide="id1" ooo:id-list="id3 id4 id5 id6 id7 id8 id9 id10 id11 id12 id13 id14 id15 id16 id17 id18 id19 id20 id21 id22 id23 id24 id25 id26 id27 id28 id29 id30 id31 id32 id33 id34 id35 id36 id37 id38 id39 id40 id41 id42 id43 id44 id45 id46 id47 id48 id49 id50 id51 id52 id53 id54 id55 id56 id57 id58 id59 id60 id61 id62 id63 id64 id65 id66 id67 id68 id69"/>
 </defs>
 <defs class="EmbeddedBulletChars">
  <g id="bullet-char-template(57356)" transform="scale(0.00048828125,-0.00048828125)">
   <path d="M 580,1141 L 1163,571 580,0 -4,571 580,1141 Z"/>
  </g>
  <g id="bullet-char-template(57354)" transform="scale(0.00048828125,-0.00048828125)">
   <path d="M 8,1128 L 1137,1128 1137,0 8,0 8,1128 Z"/>
  </g>
  <g id="bullet-char-template(10146)" transform="scale(0.00048828125,-0.00048828125)">
   <path d="M 174,0 L 602,739 174,1481 1456,739 174,0 Z M 1358,739 L 309,1346 659,739 1358,739 Z"/>
  </g>
  <g id="bullet-char-template(10132)" transform="scale(0.00048828125,-0.00048828125)">
   <path d="M 2015,739 L 1276,0 717,0 1260,543 174,543 174,936 1260,936 717,1481 1274,1481 2015,739 Z"/>
  </g>
  <g id="bullet-char-template(10007)" transform="scale(0.00048828125,-0.00048828125)">
   <path d="M 0,-2 C -7,14 -16,27 -25,37 L 356,567 C 262,823 215,952 215,954 215,979 228,992 255,992 264,992 276,990 289,987 310,991 331,999 354,1012 L 381,999 492,748 772,1049 836,1024 860,1049 C 881,1039 901,1025 922,1006 886,937 835,863 770,784 769,783 710,716 594,584 L 774,223 C 774,196 753,168 711,139 L 727,119 C 717,90 699,76 672,76 641,76 570,178 457,381 L 164,-76 C 142,-110 111,-127 72,-127 30,-127 9,-110 8,-76 1,-67 -2,-52 -2,-32 -2,-23 -1,-13 0,-2 Z"/>
  </g>
  <g id="bullet-char-template(10004)" transform="scale(0.00048828125,-0.00048828125)">
   <path d="M 285,-33 C 182,-33 111,30 74,156 52,228 41,333 41,471 41,549 55,616 82,672 116,743 169,778 240,778 293,778 328,747 346,684 L 369,508 C 377,444 397,411 428,410 L 1163,1116 C 1174,1127 1196,1133 1229,1133 1271,1133 1292,1118 1292,1087 L 1292,965 C 1292,929 1282,901 1262,881 L 442,47 C 390,-6 338,-33 285,-33 Z"/>
  </g>
  <g id="bullet-char-template(9679)" transform="scale(0.00048828125,-0.00048828125)">
   <path d="M 813,0 C 632,0 489,54 383,161 276,268 223,411 223,592 223,773 276,916 383,1023 489,1130 632,1184 813,1184 992,1184 1136,1130 1245,1023 1353,916 1407,772 1407,592 1407,412 1353,268 1245,161 1136,54 992,0 813,0 Z"/>
  </g>
  <g id="bullet-char-template(8226)" transform="scale(0.00048828125,-0.00048828125)">
   <path d="M 346,457 C 273,457 209,483 155,535 101,586 74,649 74,723 74,796 101,859 155,911 209,963 273,989 346,989 419,989 480,963 531,910 582,859 608,796 608,723 608,648 583,586 532,535 482,483 420,457 346,457 Z"/>
  </g>
  <g id="bullet-char-template(8211)" transform="scale(0.00048828125,-0.00048828125)">
   <path d="M -4,459 L 1135,459 1135,606 -4,606 -4,459 Z"/>
  </g>
 </defs>
 <defs class="TextEmbeddedBitmaps"/>
 <g>
  <g id="id2" class="Master_Slide">
   <g id="bg-id2" class="Background"/>
   <g id="bo-id2" class="BackgroundObjects"/>
  </g>
 </g>
 <g class="SlideGroup">
  <g>
   <g id="id1" class="Slide" clip-path="url(#presentation_clip_path)">
    <g class="Page">
     <g class="com.sun.star.drawing.CustomShape">
      <g id="id3">
       <path fill="rgb(255,255,0)" stroke="none" d="M 21453,16113 L 20176,16113 20176,6207 22729,6207 22729,16113 21453,16113 Z"/>
       <path fill="none" stroke="rgb(255,255,0)" d="M 21453,16113 L 20176,16113 20176,6207 22729,6207 22729,16113 21453,16113 Z"/>
      </g>
     </g>
     <g class="com.sun.star.drawing.CustomShape">
      <g id="id4">
       <path fill="rgb(255,255,0)" stroke="none" d="M -4305,-693 L -13986,-693 -13986,-3734 5376,-3734 5376,-693 -4305,-693 Z"/>
       <path fill="none" stroke="rgb(255,255,0)" d="M -4305,-693 L -13986,-693 -13986,-3734 5376,-3734 5376,-693 -4305,-693 Z"/>
      </g>
     </g>
     <g class="com.sun.star.drawing.CustomShape">
      <g id="id5">
       <path fill="rgb(255,255,0)" stroke="none" d="M 2191,710 L -229,710 -229,-5371 4611,-5371 4611,710 2191,710 Z"/>
       <path fill="none" stroke="rgb(255,255,0)" d="M 2191,710 L -229,710 -229,-5371 4611,-5371 4611,710 2191,710 Z"/>
      </g>
     </g>
     <g class="com.sun.star.drawing.CustomShape">
      <g id="id6">
       <path fill="rgb(255,255,0)" stroke="none" d="M 3592,6792 L 25,6792 25,1178 7158,1178 7158,6792 3592,6792 Z"/>
       <path fill="none" stroke="rgb(255,255,0)" d="M 3592,6792 L 25,6792 25,1178 7158,1178 7158,6792 3592,6792 Z"/>
      </g>
     </g>
     <g class="com.sun.star.drawing.CustomShape">
      <g id="id7">
       <path fill="rgb(255,255,0)" stroke="none" d="M 12787,10925 L 11852,11413 9509,6920 11380,5944 13723,10437 12787,10925 Z"/>
       <path fill="none" stroke="rgb(255,255,0)" d="M 12787,10925 L 11852,11413 9509,6920 11380,5944 13723,10437 12787,10925 Z"/>
      </g>
     </g>
     <g class="com.sun.star.drawing.CustomShape">
      <g id="id8">
       <path fill="rgb(255,255,0)" stroke="none" d="M 3379,19986 L 1850,19986 1850,6654 4907,6654 4907,19986 3379,19986 Z"/>
       <path fill="none" stroke="rgb(255,255,0)" d="M 3379,19986 L 1850,19986 1850,6654 4907,6654 4907,19986 3379,19986 Z"/>
      </g>
     </g>
     <g class="com.sun.star.drawing.CustomShape">
      <g id="id9">
       <path fill="rgb(255,255,0)" stroke="none" d="M 6139,12640 L 4610,12640 4610,10300 7667,10300 7667,12640 6139,12640 Z"/>
       <path fill="none" stroke="rgb(255,255,0)" d="M 6139,12640 L 4610,12640 4610,10300 7667,10300 7667,12640 6139,12640 Z"/>
      </g>
     </g>
     <g class="com.sun.star.drawing.CustomShape">
      <g id="id10">
       <path fill="none" stroke="rgb(0,0,0)" stroke-width="51" d="M 7286,20123 L -14241,20123 -14241,944 28812,944 28812,20123 7286,20123 Z"/>
      </g>
     </g>
     <g class="com.sun.star.drawing.CustomShape">
      <g id="id11">
       <path fill="none" stroke="rgb(0,0,0)" stroke-width="51" d="M 7286,944 L -14241,944 -14241,-5605 28812,-5605 28812,944 7286,944 Z"/>
      </g>
     </g>
     <g class="com.sun.star.drawing.CustomShape">
      <g id="id12">
       <path fill="rgb(0,0,0)" stroke="none" d="M 7415,944 L 7414,944 7414,-5605 7416,-5605 7416,944 7415,944 Z"/>
       <path fill="none" stroke="rgb(0,0,0)" stroke-width="51" d="M 7415,944 L 7414,944 7414,-5605 7416,-5605 7416,944 7415,944 Z"/>
      </g>
     </g>
     <g class="com.sun.star.drawing.ClosedBezierShape">
      <g id="id13">
       <path fill="rgb(114,159,207)" stroke="none" d="M -13985,-2329 C -10022,-2329 -10721,-5370 -10721,-5370 L -13985,-5370 -13985,-5180 -13985,-2329 Z"/>
       <path fill="none" stroke="rgb(52,101,175)" d="M -13985,-2329 C -10022,-2329 -10721,-5370 -10721,-5370 L -13985,-5370 -13985,-5180 -13985,-2329 Z"/>
      </g>
     </g>
     <g class="com.sun.star.drawing.ClosedBezierShape">
      <g id="id14">
       <path fill="rgb(114,159,207)" stroke="none" d="M -13985,-2096 C -10022,-2096 -10721,945 -10721,945 L -13985,945 -13985,755 -13985,-2096 Z"/>
       <path fill="none" stroke="rgb(52,101,175)" d="M -13985,-2096 C -10022,-2096 -10721,945 -10721,945 L -13985,945 -13985,755 -13985,-2096 Z"/>
      </g>
     </g>
     <g class="com.sun.star.drawing.ClosedBezierShape">
      <g id="id15">
       <path fill="rgb(114,159,207)" stroke="none" d="M 4484,3518 C 7380,3518 6869,1179 6869,1179 L 4484,1179 4484,1325 4484,3518 Z"/>
       <path fill="none" stroke="rgb(52,101,175)" d="M 4484,3518 C 7380,3518 6869,1179 6869,1179 L 4484,1179 4484,1325 4484,3518 Z"/>
      </g>
     </g>
     <g class="com.sun.star.drawing.ClosedBezierShape">
      <g id="id16">
       <path fill="rgb(114,159,207)" stroke="none" d="M -356,3518 C 2540,3518 2029,1179 2029,1179 L -356,1179 -356,1325 -356,3518 Z"/>
       <path fill="none" stroke="rgb(52,101,175)" d="M -356,3518 C 2540,3518 2029,1179 2029,1179 L -356,1179 -356,1325 -356,3518 Z"/>
      </g>
     </g>
     <g class="com.sun.star.drawing.ClosedBezierShape">
      <g id="id17">
       <path fill="rgb(114,159,207)" stroke="none" d="M 4484,3518 C 1588,3518 2099,1179 2099,1179 L 4484,1179 4484,1325 4484,3518 Z"/>
       <path fill="none" stroke="rgb(52,101,175)" d="M 4484,3518 C 1588,3518 2099,1179 2099,1179 L 4484,1179 4484,1325 4484,3518 Z"/>
      </g>
     </g>
     <g class="com.sun.star.drawing.ClosedBezierShape">
      <g id="id18">
       <path fill="rgb(114,159,207)" stroke="none" d="M 4865,22463 C 1969,22463 2480,20124 2480,20124 L 4865,20124 4865,20270 4865,22463 Z"/>
       <path fill="none" stroke="rgb(52,101,175)" d="M 4865,22463 C 1969,22463 2480,20124 2480,20124 L 4865,20124 4865,20270 4865,22463 Z"/>
      </g>
     </g>
     <g class="com.sun.star.drawing.ClosedBezierShape">
      <g id="id19">
       <path fill="rgb(114,159,207)" stroke="none" d="M 7414,10534 C 5280,10534 5657,8663 5657,8663 L 7414,8663 7414,8780 7414,10534 Z"/>
       <path fill="none" stroke="rgb(52,101,175)" d="M 7414,10534 C 5280,10534 5657,8663 5657,8663 L 7414,8663 7414,8780 7414,10534 Z"/>
      </g>
     </g>
     <g class="com.sun.star.drawing.ClosedBezierShape">
      <g id="id20">
       <path fill="rgb(114,159,207)" stroke="none" d="M 7414,6792 C 5280,6792 5657,4921 5657,4921 L 7414,4921 7414,5038 7414,6792 Z"/>
       <path fill="none" stroke="rgb(52,101,175)" d="M 7414,6792 C 5280,6792 5657,4921 5657,4921 L 7414,4921 7414,5038 7414,6792 Z"/>
      </g>
     </g>
     <g class="com.sun.star.drawing.ClosedBezierShape">
      <g id="id21">
       <path fill="rgb(114,159,207)" stroke="none" d="M 7414,3050 C 5280,3050 5657,4921 5657,4921 L 7414,4921 7414,4804 7414,3050 Z"/>
       <path fill="none" stroke="rgb(52,101,175)" d="M 7414,3050 C 5280,3050 5657,4921 5657,4921 L 7414,4921 7414,4804 7414,3050 Z"/>
      </g>
     </g>
     <g class="com.sun.star.drawing.ClosedBezierShape">
      <g id="id22">
       <path fill="rgb(114,159,207)" stroke="none" d="M 7414,6792 C 5280,6792 5657,8663 5657,8663 L 7414,8663 7414,8546 7414,6792 Z"/>
       <path fill="none" stroke="rgb(52,101,175)" d="M 7414,6792 C 5280,6792 5657,8663 5657,8663 L 7414,8663 7414,8546 7414,6792 Z"/>
      </g>
     </g>
     <g class="com.sun.star.drawing.CustomShape">
      <g id="id23">
       <path fill="rgb(102,255,255)" stroke="none" d="M 8942,12639 L 7413,12639 7413,9598 10470,9598 10470,12639 8942,12639 Z"/>
       <path fill="none" stroke="rgb(52,101,175)" d="M 8942,12639 L 7413,12639 7413,9598 10470,9598 10470,12639 8942,12639 Z"/>
      </g>
     </g>
     <g class="com.sun.star.drawing.CustomShape">
      <g id="id24">
       <path fill="rgb(114,159,207)" stroke="none" d="M 10471,20124 L 10470,20124 10470,12640 10471,12640 10471,20124 10471,20124 Z"/>
       <path fill="none" stroke="rgb(0,0,0)" stroke-width="51" d="M 10471,20124 L 10470,20124 10470,12640 10471,12640 10471,20124 10471,20124 Z"/>
      </g>
     </g>
     <g class="com.sun.star.drawing.CustomShape">
      <g id="id25">
       <path fill="rgb(114,159,207)" stroke="none" d="M 7541,4921 L 7414,4921 7414,945 7668,945 7668,4921 7541,4921 Z"/>
       <path fill="none" stroke="rgb(0,0,0)" stroke-width="51" d="M 7541,4921 L 7414,4921 7414,945 7668,945 7668,4921 7541,4921 Z"/>
      </g>
     </g>
     <g class="com.sun.star.drawing.CustomShape">
      <g id="id26">
       <path fill="rgb(114,159,207)" stroke="none" d="M 7669,9364 L 7668,9364 7668,8663 7670,8663 7670,9364 7669,9364 Z"/>
       <path fill="none" stroke="rgb(0,0,0)" stroke-width="51" d="M 7669,9364 L 7668,9364 7668,8663 7670,8663 7670,9364 7669,9364 Z"/>
      </g>
     </g>
     <g class="com.sun.star.drawing.ClosedBezierShape">
      <g id="id27">
       <path fill="rgb(114,159,207)" stroke="none" d="M 10853,3518 C 7957,3518 8468,1179 8468,1179 L 10853,1179 10853,1325 10853,3518 Z"/>
       <path fill="none" stroke="rgb(52,101,175)" d="M 10853,3518 C 7957,3518 8468,1179 8468,1179 L 10853,1179 10853,1325 10853,3518 Z"/>
      </g>
     </g>
     <g class="com.sun.star.drawing.ClosedBezierShape">
      <g id="id28">
       <path fill="rgb(114,159,207)" stroke="none" d="M -354,3518 C -3250,3518 -2739,1179 -2739,1179 L -354,1179 -354,1325 -354,3518 Z"/>
       <path fill="none" stroke="rgb(52,101,175)" d="M -354,3518 C -3250,3518 -2739,1179 -2739,1179 L -354,1179 -354,1325 -354,3518 Z"/>
      </g>
     </g>
     <g class="com.sun.star.drawing.ClosedBezierShape">
      <g id="id29">
       <path fill="rgb(102,255,255)" stroke="none" d="M 7286,12640 C 4390,12640 4901,10301 4901,10301 L 7286,10301 7286,10447 7286,12640 Z"/>
       <path fill="none" stroke="rgb(52,101,175)" d="M 7286,12640 C 4390,12640 4901,10301 4901,10301 L 7286,10301 7286,10447 7286,12640 Z"/>
      </g>
     </g>
     <g class="com.sun.star.drawing.CustomShape">
      <g id="id30">
       <path fill="rgb(102,255,153)" stroke="none" d="M -13263,1412 C -13497,1412 -13730,1645 -13730,1879 L -13730,19422 C -13730,19656 -13497,19890 -13263,19890 L -11395,19890 C -11162,19890 -10928,19656 -10928,19422 L -10928,1879 C -10928,1645 -11162,1412 -11395,1412 L -13263,1412 Z M -13730,1412 L -13730,1412 Z M -10927,19890 L -10927,19890 Z"/>
       <path fill="none" stroke="rgb(255,255,0)" d="M -13263,1412 C -13497,1412 -13730,1645 -13730,1879 L -13730,19422 C -13730,19656 -13497,19890 -13263,19890 L -11395,19890 C -11162,19890 -10928,19656 -10928,19422 L -10928,1879 C -10928,1645 -11162,1412 -11395,1412 L -13263,1412 Z"/>
       <path fill="none" stroke="rgb(255,255,0)" d="M -13730,1412 L -13730,1412 Z"/>
       <path fill="none" stroke="rgb(255,255,0)" d="M -10927,19890 L -10927,19890 Z"/>
      </g>
     </g>
     <g class="com.sun.star.drawing.CustomShape">
      <g id="id31">
       <path fill="rgb(255,51,153)" stroke="none" d="M -13689,8896 C -13838,8896 -13986,9044 -13986,9193 L -13986,11874 C -13986,12023 -13838,12172 -13689,12172 L -12499,12172 C -12350,12172 -12201,12023 -12201,11874 L -12201,9193 C -12201,9044 -12350,8896 -12499,8896 L -13689,8896 Z M -13986,8896 L -13986,8896 Z M -12201,12172 L -12201,12172 Z"/>
       <path fill="none" stroke="rgb(255,255,0)" d="M -13689,8896 C -13838,8896 -13986,9044 -13986,9193 L -13986,11874 C -13986,12023 -13838,12172 -13689,12172 L -12499,12172 C -12350,12172 -12201,12023 -12201,11874 L -12201,9193 C -12201,9044 -12350,8896 -12499,8896 L -13689,8896 Z"/>
       <path fill="none" stroke="rgb(255,255,0)" d="M -13986,8896 L -13986,8896 Z"/>
       <path fill="none" stroke="rgb(255,255,0)" d="M -12201,12172 L -12201,12172 Z"/>
      </g>
     </g>
     <g class="com.sun.star.drawing.CustomShape">
      <g id="id32">
       <path fill="rgb(255,51,153)" stroke="none" d="M -2502,18254 C -2639,18254 -2775,18390 -2775,18527 L -2775,19619 C -2775,19756 -2639,19893 -2502,19893 L 774,19893 C 911,19893 1048,19756 1048,19619 L 1048,18527 C 1048,18390 911,18254 774,18254 L -2502,18254 Z M -2775,18254 L -2775,18254 Z M 1048,19893 L 1048,19893 Z"/>
       <path fill="none" stroke="rgb(255,255,0)" d="M -2502,18254 C -2639,18254 -2775,18390 -2775,18527 L -2775,19619 C -2775,19756 -2639,19893 -2502,19893 L 774,19893 C 911,19893 1048,19756 1048,19619 L 1048,18527 C 1048,18390 911,18254 774,18254 L -2502,18254 Z"/>
       <path fill="none" stroke="rgb(255,255,0)" d="M -2775,18254 L -2775,18254 Z"/>
       <path fill="none" stroke="rgb(255,255,0)" d="M 1048,19893 L 1048,19893 Z"/>
      </g>
     </g>
     <g class="com.sun.star.drawing.CustomShape">
      <g id="id33">
       <path fill="rgb(102,255,102)" stroke="none" d="M 6182,12873 C 5779,12873 5376,13276 5376,13679 L 5376,18851 C 5376,19254 5779,19657 6182,19657 L 9410,19657 C 9813,19657 10217,19254 10217,18851 L 10217,13679 C 10217,13276 9813,12873 9410,12873 L 6182,12873 Z M 5376,12873 L 5376,12873 Z M 10217,19658 L 10217,19658 Z"/>
       <path fill="none" stroke="rgb(255,255,0)" d="M 6182,12873 C 5779,12873 5376,13276 5376,13679 L 5376,18851 C 5376,19254 5779,19657 6182,19657 L 9410,19657 C 9813,19657 10217,19254 10217,18851 L 10217,13679 C 10217,13276 9813,12873 9410,12873 L 6182,12873 Z"/>
       <path fill="none" stroke="rgb(255,255,0)" d="M 5376,12873 L 5376,12873 Z"/>
       <path fill="none" stroke="rgb(255,255,0)" d="M 10217,19658 L 10217,19658 Z"/>
      </g>
     </g>
     <g class="com.sun.star.drawing.CustomShape">
      <g id="id34">
       <path fill="rgb(204,153,0)" stroke="none" d="M 12389,1178 C 12194,1178 11999,1373 11999,1568 L 11999,3128 C 11999,3323 12194,3519 12389,3519 L 25621,3519 C 25816,3519 26012,3323 26012,3128 L 26012,1568 C 26012,1373 25816,1178 25621,1178 L 12389,1178 Z M 11999,1178 L 11999,1178 Z M 26012,3519 L 26012,3519 Z"/>
       <path fill="none" stroke="rgb(255,255,0)" d="M 12389,1178 C 12194,1178 11999,1373 11999,1568 L 11999,3128 C 11999,3323 12194,3519 12389,3519 L 25621,3519 C 25816,3519 26012,3323 26012,3128 L 26012,1568 C 26012,1373 25816,1178 25621,1178 L 12389,1178 Z"/>
       <path fill="none" stroke="rgb(255,255,0)" d="M 11999,1178 L 11999,1178 Z"/>
       <path fill="none" stroke="rgb(255,255,0)" d="M 26012,3519 L 26012,3519 Z"/>
      </g>
     </g>
     <g class="com.sun.star.drawing.CustomShape">
      <g id="id35">
       <path fill="rgb(0,0,255)" stroke="none" d="M -11640,1647 C -12049,1647 -12458,2056 -12458,2465 L -12458,5741 C -12458,6150 -12049,6560 -11640,6560 L -2067,6560 C -1658,6560 -1248,6150 -1248,5741 L -1248,2465 C -1248,2056 -1658,1647 -2067,1647 L -11640,1647 Z M -12458,1647 L -12458,1647 Z M -1248,6560 L -1248,6560 Z"/>
       <path fill="none" stroke="rgb(255,255,0)" d="M -11640,1647 C -12049,1647 -12458,2056 -12458,2465 L -12458,5741 C -12458,6150 -12049,6560 -11640,6560 L -2067,6560 C -1658,6560 -1248,6150 -1248,5741 L -1248,2465 C -1248,2056 -1658,1647 -2067,1647 L -11640,1647 Z"/>
       <path fill="none" stroke="rgb(255,255,0)" d="M -12458,1647 L -12458,1647 Z"/>
       <path fill="none" stroke="rgb(255,255,0)" d="M -1248,6560 L -1248,6560 Z"/>
      </g>
     </g>
     <g class="com.sun.star.drawing.CustomShape">
      <g id="id36">
       <path fill="rgb(255,255,255)" stroke="none" d="M 25193,19669 L 22462,19669 22462,17891 27923,17891 27923,19669 25193,19669 Z"/>
       <path fill="none" stroke="rgb(0,0,0)" d="M 25193,19669 L 22462,19669 22462,17891 27923,17891 27923,19669 25193,19669 Z"/>
      </g>
     </g>
     <g class="com.sun.star.drawing.CustomShape">
      <g id="id37">
       <path fill="rgb(255,255,255)" stroke="none" d="M 11795,19542 L 10779,19542 10779,14970 12811,14970 12811,19542 11795,19542 Z"/>
       <path fill="none" stroke="rgb(0,0,0)" d="M 11795,19542 L 10779,19542 10779,14970 12811,14970 12811,19542 11795,19542 Z"/>
      </g>
     </g>
     <g class="com.sun.star.drawing.CustomShape">
      <g id="id38">
       <path fill="rgb(255,255,255)" stroke="none" d="M 27035,17891 L 26146,17891 26146,13827 27924,13827 27924,17891 27035,17891 Z"/>
       <path fill="none" stroke="rgb(0,0,0)" d="M 27035,17891 L 26146,17891 26146,13827 27924,13827 27924,17891 27035,17891 Z"/>
      </g>
     </g>
     <g class="Group">
      <g class="com.sun.star.drawing.CustomShape">
       <g id="id39">
        <path fill="rgb(255,255,255)" stroke="none" d="M 27289,10291 L 26527,10291 26527,4682 28051,4682 28051,10291 27289,10291 Z"/>
        <path fill="none" stroke="rgb(0,0,0)" d="M 27289,10291 L 26527,10291 26527,4682 28051,4682 28051,10291 27289,10291 Z"/>
       </g>
      </g>
      <g class="com.sun.star.drawing.CustomShape">
       <g id="id40">
        <path fill="rgb(255,255,255)" stroke="none" d="M 27162,10672 L 26527,10672 26527,10291 27797,10291 27797,10672 27162,10672 Z"/>
        <path fill="none" stroke="rgb(0,0,0)" d="M 27162,10672 L 26527,10672 26527,10291 27797,10291 27797,10672 27162,10672 Z"/>
       </g>
      </g>
      <g class="com.sun.star.drawing.CustomShape">
       <g id="id41">
        <path fill="rgb(255,255,255)" stroke="none" d="M 26400,6100 L 26273,6100 26273,4703 26527,4703 26527,6100 26400,6100 Z"/>
        <path fill="none" stroke="rgb(0,0,0)" d="M 26400,6100 L 26273,6100 26273,4703 26527,4703 26527,6100 26400,6100 Z"/>
       </g>
      </g>
     </g>
     <g class="com.sun.star.drawing.TextShape">
      <g id="id42">
       <text class="TextShape"><tspan class="TextParagraph" font-family="Arial, sans-serif" font-size="635px" font-weight="400"><tspan class="TextPosition" x="20975" y="11603"><tspan fill="rgb(0,0,0)" stroke="none">3 Werkbänke, versetzt</tspan></tspan></tspan></text>
      </g>
     </g>
     <g class="com.sun.star.drawing.TextShape">
      <g id="id43">
       <text class="TextShape"><tspan class="TextParagraph" font-family="Arial, sans-serif" font-size="635px" font-weight="400"><tspan class="TextPosition" x="22190" y="19022"><tspan fill="rgb(0,0,0)" stroke="none">Bohrständer</tspan></tspan></tspan></text>
      </g>
     </g>
     <g class="com.sun.star.drawing.TextShape">
      <g id="id44">
       <text class="TextShape"><tspan class="TextParagraph" font-family="Arial, sans-serif" font-size="635px" font-weight="400"><tspan class="TextPosition" x="8478" y="17572"><tspan fill="rgb(0,0,0)" stroke="none">Drehmaschine</tspan></tspan></tspan></text>
      </g>
     </g>
     <g class="com.sun.star.drawing.TextShape">
      <g id="id45">
       <text class="TextShape"><tspan class="TextParagraph" font-family="Arial, sans-serif" font-size="635px" font-weight="400"><tspan class="TextPosition" x="14712" y="20112"><tspan fill="rgb(0,0,0)" stroke="none">Holzablage</tspan></tspan></tspan></text>
      </g>
     </g>
     <g class="Group">
      <g class="com.sun.star.drawing.CustomShape">
       <g id="id46">
        <path fill="rgb(153,255,153)" fill-opacity="0.298" stroke="rgb(255,255,255)" stroke-opacity="0.298" d="M 26654,9381 C 28454,9381 29829,10288 29829,11476 29829,12664 28454,13572 26654,13572 24854,13572 23479,12664 23479,11476 23479,10288 24854,9381 26654,9381 Z M 23479,9381 L 23479,9381 Z M 29830,13573 L 29830,13573 Z"/>
        <path fill="none" stroke="rgb(153,255,102)" d="M 26654,9381 C 28454,9381 29829,10288 29829,11476 29829,12664 28454,13572 26654,13572 24854,13572 23479,12664 23479,11476 23479,10288 24854,9381 26654,9381 Z"/>
        <path fill="none" stroke="rgb(153,255,102)" d="M 23479,9381 L 23479,9381 Z"/>
        <path fill="none" stroke="rgb(153,255,102)" d="M 29830,13573 L 29830,13573 Z"/>
       </g>
      </g>
      <g class="com.sun.star.drawing.CustomShape">
       <g id="id47">
        <path fill="rgb(153,255,153)" fill-opacity="0.298" stroke="rgb(255,255,255)" stroke-opacity="0.298" d="M 25511,3286 C 26951,3286 28051,4716 28051,6588 28051,8460 26951,9890 25511,9890 24071,9890 22971,8460 22971,6588 22971,4716 24071,3286 25511,3286 Z M 22971,3286 L 22971,3286 Z M 28052,9891 L 28052,9891 Z"/>
        <path fill="none" stroke="rgb(153,255,102)" d="M 25511,3286 C 26951,3286 28051,4716 28051,6588 28051,8460 26951,9890 25511,9890 24071,9890 22971,8460 22971,6588 22971,4716 24071,3286 25511,3286 Z"/>
        <path fill="none" stroke="rgb(153,255,102)" d="M 22971,3286 L 22971,3286 Z"/>
        <path fill="none" stroke="rgb(153,255,102)" d="M 28052,9891 L 28052,9891 Z"/>
       </g>
      </g>
      <g class="com.sun.star.drawing.CustomShape">
       <g id="id48">
        <path fill="rgb(153,255,153)" fill-opacity="0.298" stroke="rgb(255,255,255)" stroke-opacity="0.298" d="M 25446,6207 C 26994,6207 28177,7637 28177,9509 28177,11381 26994,12811 25446,12811 23898,12811 22716,11381 22716,9509 22716,7637 23898,6207 25446,6207 Z M 22716,6207 L 22716,6207 Z M 28178,12812 L 28178,12812 Z"/>
        <path fill="none" stroke="rgb(153,255,102)" d="M 25446,6207 C 26994,6207 28177,7637 28177,9509 28177,11381 26994,12811 25446,12811 23898,12811 22716,11381 22716,9509 22716,7637 23898,6207 25446,6207 Z"/>
        <path fill="none" stroke="rgb(153,255,102)" d="M 22716,6207 L 22716,6207 Z"/>
        <path fill="none" stroke="rgb(153,255,102)" d="M 28178,12812 L 28178,12812 Z"/>
       </g>
      </g>
     </g>
     <g class="com.sun.star.drawing.CustomShape">
      <g id="id49">
       <path fill="none" stroke="rgb(52,101,175)" d="M 16494,20000 L 10652,20000 10652,19542 22336,19542 22336,20000 16494,20000 Z"/>
      </g>
     </g>
     <g class="com.sun.star.drawing.CustomShape">
      <g id="id50">
       <path fill="rgb(255,51,255)" fill-opacity="0.102" stroke="rgb(255,255,255)" stroke-opacity="0.102" d="M 21574,16240 C 22582,16240 23352,17010 23352,18018 23352,19026 22582,19796 21574,19796 20566,19796 19796,19026 19796,18018 19796,17010 20566,16240 21574,16240 Z M 19796,16240 L 19796,16240 Z M 23353,19797 L 23353,19797 Z"/>
       <path fill="none" stroke="rgb(255,51,255)" d="M 21574,16240 C 22582,16240 23352,17010 23352,18018 23352,19026 22582,19796 21574,19796 20566,19796 19796,19026 19796,18018 19796,17010 20566,16240 21574,16240 Z"/>
       <path fill="none" stroke="rgb(255,51,255)" d="M 19796,16240 L 19796,16240 Z"/>
       <path fill="none" stroke="rgb(255,51,255)" d="M 23353,19797 L 23353,19797 Z"/>
      </g>
     </g>
     <g class="com.sun.star.drawing.CustomShape">
      <g id="id51">
       <path fill="rgb(255,102,0)" fill-opacity="0.102" stroke="rgb(255,255,255)" stroke-opacity="0.102" d="M 25638,12938 C 27222,12938 28432,14203 28432,15859 28432,17515 27222,18780 25638,18780 24054,18780 22844,17515 22844,15859 22844,14203 24054,12938 25638,12938 Z M 22844,12938 L 22844,12938 Z M 28433,18781 L 28433,18781 Z"/>
       <path fill="none" stroke="rgb(255,102,0)" d="M 25638,12938 C 27222,12938 28432,14203 28432,15859 28432,17515 27222,18780 25638,18780 24054,18780 22844,17515 22844,15859 22844,14203 24054,12938 25638,12938 Z"/>
       <path fill="none" stroke="rgb(255,102,0)" d="M 22844,12938 L 22844,12938 Z"/>
       <path fill="none" stroke="rgb(255,102,0)" d="M 28433,18781 L 28433,18781 Z"/>
      </g>
     </g>
     <g class="com.sun.star.drawing.TextShape">
      <g id="id52">
       <text class="TextShape"><tspan class="TextParagraph" font-family="Arial, sans-serif" font-size="635px" font-weight="400"><tspan class="TextPosition" x="26523" y="15643"><tspan fill="rgb(0,0,0)" stroke="none">Schreib-</tspan></tspan></tspan><tspan class="TextParagraph" font-family="Arial, sans-serif" font-size="635px" font-weight="400"><tspan class="TextPosition" x="26523" y="16355"><tspan fill="rgb(0,0,0)" stroke="none">tisch</tspan></tspan></tspan></text>
      </g>
     </g>
     <g class="com.sun.star.drawing.CustomShape">
      <g id="id53">
       <path fill="rgb(255,255,0)" stroke="none" d="M 17192,6207 L 11667,6207 11667,3921 22716,3921 22716,6207 17192,6207 Z"/>
       <path fill="none" stroke="rgb(255,255,0)" d="M 17192,6207 L 11667,6207 11667,3921 22716,3921 22716,6207 17192,6207 Z"/>
      </g>
     </g>
     <g class="Group">
      <g class="Group">
       <g class="com.sun.star.drawing.PolyPolygonShape">
        <g id="id54">
         <path fill="rgb(255,255,255)" stroke="none" d="M 16024,16996 L 14185,11697 15744,11156 17583,16455 16024,16996 Z"/>
         <path fill="none" stroke="rgb(0,0,0)" d="M 16024,16996 L 14185,11697 15744,11156 17583,16455 16024,16996 Z"/>
        </g>
       </g>
       <g class="com.sun.star.drawing.PolyPolygonShape">
        <g id="id55">
         <path fill="rgb(255,255,255)" stroke="none" d="M 15823,17581 L 15365,16261 15725,16136 16183,17456 15823,17581 Z"/>
         <path fill="none" stroke="rgb(0,0,0)" d="M 15823,17581 L 15365,16261 15725,16136 16183,17456 15823,17581 Z"/>
        </g>
       </g>
       <g class="com.sun.star.drawing.PolyPolygonShape">
        <g id="id56">
         <path fill="rgb(255,255,255)" stroke="none" d="M 16185,17457 L 16018,16977 16978,16643 17144,17123 16185,17457 Z"/>
         <path fill="none" stroke="rgb(0,0,0)" d="M 16185,17457 L 16018,16977 16978,16643 17144,17123 16185,17457 Z"/>
        </g>
       </g>
       <g class="com.sun.star.drawing.PolyPolygonShape">
        <g id="id57">
         <path fill="rgb(255,255,255)" stroke="none" d="M 14404,13101 L 13988,11901 14228,11818 14644,13017 14404,13101 Z"/>
         <path fill="none" stroke="rgb(0,0,0)" d="M 14404,13101 L 13988,11901 14228,11818 14644,13017 14404,13101 Z"/>
        </g>
       </g>
      </g>
      <g class="Group">
       <g class="com.sun.star.drawing.PolyPolygonShape">
        <g id="id58">
         <path fill="rgb(255,255,255)" stroke="none" d="M 16549,8435 L 18388,13734 16828,14276 14989,8977 16549,8435 Z"/>
         <path fill="none" stroke="rgb(0,0,0)" d="M 16549,8435 L 18388,13734 16828,14276 14989,8977 16549,8435 Z"/>
        </g>
       </g>
       <g class="com.sun.star.drawing.PolyPolygonShape">
        <g id="id59">
         <path fill="rgb(255,255,255)" stroke="none" d="M 16749,7850 L 17207,9170 16847,9295 16389,7975 16749,7850 Z"/>
         <path fill="none" stroke="rgb(0,0,0)" d="M 16749,7850 L 17207,9170 16847,9295 16389,7975 16749,7850 Z"/>
        </g>
       </g>
       <g class="com.sun.star.drawing.PolyPolygonShape">
        <g id="id60">
         <path fill="rgb(255,255,255)" stroke="none" d="M 16392,7977 L 16558,8456 15599,8790 15432,8310 16392,7977 Z"/>
         <path fill="none" stroke="rgb(0,0,0)" d="M 16392,7977 L 16558,8456 15599,8790 15432,8310 16392,7977 Z"/>
        </g>
       </g>
       <g class="com.sun.star.drawing.PolyPolygonShape">
        <g id="id61">
         <path fill="rgb(255,255,255)" stroke="none" d="M 18172,12333 L 18589,13532 18349,13616 17933,12416 18172,12333 Z"/>
         <path fill="none" stroke="rgb(0,0,0)" d="M 18172,12333 L 18589,13532 18349,13616 17933,12416 18172,12333 Z"/>
        </g>
       </g>
      </g>
      <g class="Group">
       <g class="com.sun.star.drawing.PolyPolygonShape">
        <g id="id62">
         <path fill="rgb(255,153,153)" fill-opacity="0.298" stroke="rgb(255,255,255)" stroke-opacity="0.298" d="M 16003,15771 L 16320,15672 16634,15596 16941,15542 17242,15511 17533,15501 17814,15513 18083,15545 18338,15598 18577,15671 18800,15763 19004,15875 19188,16006 19350,16155 19489,16322 19602,16507 19689,16709 19746,16922 19772,17137 19766,17354 19731,17572 19668,17788 19577,18003 19460,18213 19317,18419 19150,18619 18959,18811 18745,18994 18511,19167 18255,19328 17981,19477 17688,19611 17377,19730 17060,19829 16746,19905 16439,19959 16138,19990 15847,20000 15566,19988 15297,19956 15042,19903 14802,19830 14580,19737 14375,19625 14192,19494 14029,19345 13891,19178 13777,18993 13690,18791 13633,18579 13608,18363 13613,18146 13648,17929 13712,17712 13802,17498 13920,17287 14063,17081 14230,16882 14421,16690 14635,16507 14869,16334 15125,16173 15399,16024 15692,15890 16003,15771 Z M 13003,16812 L 13003,16812 Z M 20378,18690 L 20378,18690 Z"/>
         <path fill="none" stroke="rgb(255,51,51)" d="M 16003,15771 L 16320,15672 16634,15596 16941,15542 17242,15511 17533,15501 17814,15513 18083,15545 18338,15598 18577,15671 18800,15763 19004,15875 19188,16006 19350,16155 19489,16322 19602,16507 19689,16709 19746,16922 19772,17137 19766,17354 19731,17572 19668,17788 19577,18003 19460,18213 19317,18419 19150,18619 18959,18811 18745,18994 18511,19167 18255,19328 17981,19477 17688,19611 17377,19730 17060,19829 16746,19905 16439,19959 16138,19990 15847,20000 15566,19988 15297,19956 15042,19903 14802,19830 14580,19737 14375,19625 14192,19494 14029,19345 13891,19178 13777,18993 13690,18791 13633,18579 13608,18363 13613,18146 13648,17929 13712,17712 13802,17498 13920,17287 14063,17081 14230,16882 14421,16690 14635,16507 14869,16334 15125,16173 15399,16024 15692,15890 16003,15771 Z"/>
         <path fill="none" stroke="rgb(255,51,51)" d="M 13003,16812 L 13003,16812 Z"/>
         <path fill="none" stroke="rgb(255,51,51)" d="M 20378,18690 L 20378,18690 Z"/>
        </g>
       </g>
       <g class="com.sun.star.drawing.PolyPolygonShape">
        <g id="id63">
         <path fill="rgb(255,153,153)" fill-opacity="0.298" stroke="rgb(255,255,255)" stroke-opacity="0.298" d="M 12925,10388 L 13181,10316 13440,10278 13699,10272 13956,10297 14212,10353 14462,10437 14708,10550 14946,10691 15175,10857 15394,11049 15601,11265 15795,11505 15974,11766 16137,12049 16282,12352 16407,12674 16508,13005 16582,13333 16630,13655 16651,13972 16647,14280 16619,14578 16566,14864 16489,15137 16389,15394 16266,15635 16122,15857 15956,16059 15769,16238 15562,16394 15336,16524 15090,16627 14833,16698 14575,16736 14316,16742 14058,16717 13803,16662 13552,16577 13307,16464 13069,16323 12840,16157 12621,15965 12413,15749 12219,15510 12040,15248 11878,14965 11733,14662 11608,14340 11506,14009 11432,13682 11385,13359 11363,13043 11367,12735 11396,12437 11449,12150 11526,11878 11626,11620 11748,11379 11893,11157 12059,10956 12245,10776 12452,10620 12679,10490 12925,10388 Z M 10525,11220 L 10525,11220 Z M 17491,15794 L 17491,15794 Z"/>
         <path fill="none" stroke="rgb(255,51,51)" d="M 12925,10388 L 13181,10316 13440,10278 13699,10272 13956,10297 14212,10353 14462,10437 14708,10550 14946,10691 15175,10857 15394,11049 15601,11265 15795,11505 15974,11766 16137,12049 16282,12352 16407,12674 16508,13005 16582,13333 16630,13655 16651,13972 16647,14280 16619,14578 16566,14864 16489,15137 16389,15394 16266,15635 16122,15857 15956,16059 15769,16238 15562,16394 15336,16524 15090,16627 14833,16698 14575,16736 14316,16742 14058,16717 13803,16662 13552,16577 13307,16464 13069,16323 12840,16157 12621,15965 12413,15749 12219,15510 12040,15248 11878,14965 11733,14662 11608,14340 11506,14009 11432,13682 11385,13359 11363,13043 11367,12735 11396,12437 11449,12150 11526,11878 11626,11620 11748,11379 11893,11157 12059,10956 12245,10776 12452,10620 12679,10490 12925,10388 Z"/>
         <path fill="none" stroke="rgb(255,51,51)" d="M 10525,11220 L 10525,11220 Z"/>
         <path fill="none" stroke="rgb(255,51,51)" d="M 17491,15794 L 17491,15794 Z"/>
        </g>
       </g>
       <g class="com.sun.star.drawing.PolyPolygonShape">
        <g id="id64">
         <path fill="rgb(255,153,153)" fill-opacity="0.298" stroke="rgb(255,255,255)" stroke-opacity="0.298" d="M 13821,13168 L 14096,13090 14373,13046 14649,13034 14924,13053 15195,13103 15461,13183 15720,13291 15971,13427 16211,13590 16441,13778 16657,13991 16858,14228 17043,14487 17210,14768 17357,15071 17484,15393 17584,15723 17656,16052 17699,16376 17714,16695 17703,17005 17665,17306 17602,17596 17514,17873 17401,18135 17265,18380 17105,18608 16924,18815 16720,19000 16496,19162 16251,19298 15986,19407 15711,19485 15434,19530 15158,19542 14884,19523 14613,19473 14347,19393 14088,19285 13837,19149 13596,18986 13367,18798 13151,18585 12950,18348 12765,18089 12598,17807 12451,17505 12325,17183 12224,16852 12153,16524 12109,16199 12094,15881 12105,15571 12143,15269 12206,14980 12294,14703 12407,14441 12543,14195 12702,13968 12884,13761 13087,13576 13312,13414 13556,13278 13821,13168 Z M 11242,14064 L 11242,14064 Z M 18568,18513 L 18568,18513 Z"/>
         <path fill="none" stroke="rgb(255,51,51)" d="M 13821,13168 L 14096,13090 14373,13046 14649,13034 14924,13053 15195,13103 15461,13183 15720,13291 15971,13427 16211,13590 16441,13778 16657,13991 16858,14228 17043,14487 17210,14768 17357,15071 17484,15393 17584,15723 17656,16052 17699,16376 17714,16695 17703,17005 17665,17306 17602,17596 17514,17873 17401,18135 17265,18380 17105,18608 16924,18815 16720,19000 16496,19162 16251,19298 15986,19407 15711,19485 15434,19530 15158,19542 14884,19523 14613,19473 14347,19393 14088,19285 13837,19149 13596,18986 13367,18798 13151,18585 12950,18348 12765,18089 12598,17807 12451,17505 12325,17183 12224,16852 12153,16524 12109,16199 12094,15881 12105,15571 12143,15269 12206,14980 12294,14703 12407,14441 12543,14195 12702,13968 12884,13761 13087,13576 13312,13414 13556,13278 13821,13168 Z"/>
         <path fill="none" stroke="rgb(255,51,51)" d="M 11242,14064 L 11242,14064 Z"/>
         <path fill="none" stroke="rgb(255,51,51)" d="M 18568,18513 L 18568,18513 Z"/>
        </g>
       </g>
      </g>
      <g class="Group">
       <g class="com.sun.star.drawing.PolyPolygonShape">
        <g id="id65">
         <path fill="rgb(153,153,255)" fill-opacity="0.298" stroke="rgb(255,255,255)" stroke-opacity="0.298" d="M 16410,9579 L 16093,9678 15780,9754 15472,9808 15172,9839 14880,9849 14599,9838 14330,9805 14075,9752 13836,9679 13613,9587 13409,9475 13225,9344 13063,9195 12924,9028 12811,8843 12724,8641 12667,8429 12642,8213 12647,7996 12682,7778 12745,7562 12836,7347 12953,7137 13096,6931 13264,6731 13455,6539 13668,6356 13903,6183 14158,6022 14433,5873 14726,5739 15036,5620 15353,5521 15667,5445 15974,5391 16275,5360 16566,5350 16847,5362 17116,5394 17371,5447 17611,5520 17834,5613 18038,5725 18222,5856 18384,6005 18522,6172 18636,6357 18723,6559 18780,6771 18805,6987 18800,7204 18765,7421 18702,7638 18611,7852 18493,8063 18350,8269 18183,8468 17992,8660 17779,8843 17544,9016 17289,9177 17014,9326 16721,9460 16410,9579 Z M 19410,8538 L 19410,8538 Z M 12035,6660 L 12035,6660 Z"/>
         <path fill="none" stroke="rgb(255,51,51)" d="M 16410,9579 L 16093,9678 15780,9754 15472,9808 15172,9839 14880,9849 14599,9838 14330,9805 14075,9752 13836,9679 13613,9587 13409,9475 13225,9344 13063,9195 12924,9028 12811,8843 12724,8641 12667,8429 12642,8213 12647,7996 12682,7778 12745,7562 12836,7347 12953,7137 13096,6931 13264,6731 13455,6539 13668,6356 13903,6183 14158,6022 14433,5873 14726,5739 15036,5620 15353,5521 15667,5445 15974,5391 16275,5360 16566,5350 16847,5362 17116,5394 17371,5447 17611,5520 17834,5613 18038,5725 18222,5856 18384,6005 18522,6172 18636,6357 18723,6559 18780,6771 18805,6987 18800,7204 18765,7421 18702,7638 18611,7852 18493,8063 18350,8269 18183,8468 17992,8660 17779,8843 17544,9016 17289,9177 17014,9326 16721,9460 16410,9579 Z"/>
         <path fill="none" stroke="rgb(255,51,51)" d="M 19410,8538 L 19410,8538 Z"/>
         <path fill="none" stroke="rgb(255,51,51)" d="M 12035,6660 L 12035,6660 Z"/>
        </g>
       </g>
       <g class="com.sun.star.drawing.PolyPolygonShape">
        <g id="id66">
         <path fill="rgb(153,153,255)" fill-opacity="0.298" stroke="rgb(255,255,255)" stroke-opacity="0.298" d="M 19489,14965 L 19233,15037 18974,15075 18716,15081 18458,15056 18203,15000 17952,14916 17706,14802 17468,14662 17239,14496 17020,14304 16813,14088 16619,13848 16440,13587 16277,13304 16133,13001 16007,12679 15906,12348 15832,12020 15784,11698 15763,11381 15767,11073 15795,10775 15849,10489 15925,10216 16025,9959 16148,9718 16292,9496 16458,9294 16645,9115 16852,8959 17078,8829 17324,8726 17581,8655 17839,8616 18098,8610 18356,8636 18611,8691 18862,8776 19107,8889 19345,9029 19575,9196 19794,9388 20001,9604 20195,9843 20374,10105 20536,10388 20681,10691 20806,11013 20908,11344 20982,11671 21029,11994 21051,12310 21047,12618 21018,12916 20965,13202 20888,13475 20788,13733 20666,13974 20521,14196 20355,14397 20169,14577 19962,14732 19735,14862 19489,14965 Z M 21889,14132 L 21889,14132 Z M 14923,9558 L 14923,9558 Z"/>
         <path fill="none" stroke="rgb(255,51,51)" d="M 19489,14965 L 19233,15037 18974,15075 18716,15081 18458,15056 18203,15000 17952,14916 17706,14802 17468,14662 17239,14496 17020,14304 16813,14088 16619,13848 16440,13587 16277,13304 16133,13001 16007,12679 15906,12348 15832,12020 15784,11698 15763,11381 15767,11073 15795,10775 15849,10489 15925,10216 16025,9959 16148,9718 16292,9496 16458,9294 16645,9115 16852,8959 17078,8829 17324,8726 17581,8655 17839,8616 18098,8610 18356,8636 18611,8691 18862,8776 19107,8889 19345,9029 19575,9196 19794,9388 20001,9604 20195,9843 20374,10105 20536,10388 20681,10691 20806,11013 20908,11344 20982,11671 21029,11994 21051,12310 21047,12618 21018,12916 20965,13202 20888,13475 20788,13733 20666,13974 20521,14196 20355,14397 20169,14577 19962,14732 19735,14862 19489,14965 Z"/>
         <path fill="none" stroke="rgb(255,51,51)" d="M 21889,14132 L 21889,14132 Z"/>
         <path fill="none" stroke="rgb(255,51,51)" d="M 14923,9558 L 14923,9558 Z"/>
        </g>
       </g>
       <g class="com.sun.star.drawing.PolyPolygonShape">
        <g id="id67">
         <path fill="rgb(153,153,255)" fill-opacity="0.298" stroke="rgb(255,255,255)" stroke-opacity="0.298" d="M 18590,12185 L 18315,12263 18038,12308 17762,12320 17487,12301 17216,12251 16951,12171 16691,12063 16441,11927 16200,11764 15971,11576 15755,11363 15553,11126 15368,10867 15201,10585 15054,10283 14928,9961 14827,9630 14756,9302 14713,8978 14697,8659 14708,8349 14746,8048 14809,7758 14898,7481 15010,7219 15147,6974 15306,6746 15488,6539 15691,6354 15916,6192 16160,6056 16425,5946 16700,5868 16977,5824 17253,5812 17528,5831 17799,5881 18064,5961 18323,6069 18574,6205 18815,6368 19044,6556 19260,6769 19461,7006 19646,7265 19813,7547 19961,7849 20087,8171 20187,8502 20259,8830 20302,9155 20318,9473 20306,9783 20269,10084 20205,10374 20117,10651 20005,10913 19868,11158 19709,11386 19527,11593 19324,11778 19100,11940 18855,12076 18590,12185 Z M 21169,11290 L 21169,11290 Z M 13844,6841 L 13844,6841 Z"/>
         <path fill="none" stroke="rgb(255,51,51)" d="M 18590,12185 L 18315,12263 18038,12308 17762,12320 17487,12301 17216,12251 16951,12171 16691,12063 16441,11927 16200,11764 15971,11576 15755,11363 15553,11126 15368,10867 15201,10585 15054,10283 14928,9961 14827,9630 14756,9302 14713,8978 14697,8659 14708,8349 14746,8048 14809,7758 14898,7481 15010,7219 15147,6974 15306,6746 15488,6539 15691,6354 15916,6192 16160,6056 16425,5946 16700,5868 16977,5824 17253,5812 17528,5831 17799,5881 18064,5961 18323,6069 18574,6205 18815,6368 19044,6556 19260,6769 19461,7006 19646,7265 19813,7547 19961,7849 20087,8171 20187,8502 20259,8830 20302,9155 20318,9473 20306,9783 20269,10084 20205,10374 20117,10651 20005,10913 19868,11158 19709,11386 19527,11593 19324,11778 19100,11940 18855,12076 18590,12185 Z"/>
         <path fill="none" stroke="rgb(255,51,51)" d="M 21169,11290 L 21169,11290 Z"/>
         <path fill="none" stroke="rgb(255,51,51)" d="M 13844,6841 L 13844,6841 Z"/>
        </g>
       </g>
      </g>
     </g>
     <g class="com.sun.star.drawing.CustomShape">
      <g id="id68">
       <path fill="rgb(255,255,0)" stroke="none" d="M 9707,6792 L 7668,6792 7668,1178 11745,1178 11745,6792 9707,6792 Z"/>
       <path fill="none" stroke="rgb(255,255,0)" d="M 9707,6792 L 7668,6792 7668,1178 11745,1178 11745,6792 9707,6792 Z"/>
      </g>
     </g>
     <g class="com.sun.star.drawing.CustomShape">
      <g id="id69">
       <path fill="rgb(0,204,255)" fill-opacity="0.102" stroke="rgb(255,255,255)" stroke-opacity="0.102" d="M 12811,13953 C 14035,13953 14970,15300 14970,17064 14970,18828 14035,20176 12811,20176 11587,20176 10652,18828 10652,17064 10652,15300 11587,13953 12811,13953 Z M 10652,13953 L 10652,13953 Z M 14971,20177 L 14971,20177 Z"/>
       <path fill="none" stroke="rgb(0,204,255)" d="M 12811,13953 C 14035,13953 14970,15300 14970,17064 14970,18828 14035,20176 12811,20176 11587,20176 10652,18828 10652,17064 10652,15300 11587,13953 12811,13953 Z"/>
       <path fill="none" stroke="rgb(0,204,255)" d="M 10652,13953 L 10652,13953 Z"/>
       <path fill="none" stroke="rgb(0,204,255)" d="M 14971,20177 L 14971,20177 Z"/>
      </g>
     </g>
    </g>
   </g>
  </g>
 </g>
</svg>