<?xml version="1.0" encoding="UTF-8"?>
<!DOCTYPE svg PUBLIC "-//W3C//DTD SVG 1.1//EN" "http://www.w3.org/Graphics/SVG/1.1/DTD/svg11.dtd">
<svg version="1.2" width="297mm" height="210mm" viewBox="0 0 29700 21000" preserveAspectRatio="xMidYMid" fill-rule="evenodd" clip-path="url(#presentation_clip_path)" stroke-width="28.222" stroke-linejoin="round" xmlns="http://www.w3.org/2000/svg" xmlns:ooo="http://xml.openoffice.org/svg/export" xmlns:xlink="http://www.w3.org/1999/xlink" xml:space="preserve">
 <defs class="ClipPathGroup">
  <clipPath id="presentation_clip_path" clipPathUnits="userSpaceOnUse">
   <rect x="0" y="0" width="29700" height="21000"/>
  </clipPath>
 </defs>
 <defs class="TextShapeIndex">
  <g ooo:slide="id1" ooo:id-list="id3 id4 id5 id6 id7 id8 id9 id10 id11 id12 id13 id14 id15 id16 id17 id18 id19 id20 id21 id22 id23 id24 id25 id26 id27 id28 id29 id30 id31 id32 id33 id34 id35 id36 id37 id38 id39 id40 id41 id42 id43 id44 id45 id46 id47 id48 id49 id50 id51 id52 id53 id54 id55 id56 id57 id58 id59 id60 id61 id62 id63 id64 id65 id66 id67"/>
 </defs>
 <defs class="EmbeddedBulletChars">
  <g id="bullet-char-template(57356)" transform="scale(0.00048828125,-0.00048828125)">
   <path d="M 580,1141 L 1163,571 580,0 -4,571 580,1141 Z"/>
  </g>
  <g id="bullet-char-template(57354)" transform="scale(0.00048828125,-0.00048828125)">
   <path d="M 8,1128 L 1137,1128 1137,0 8,0 8,1128 Z"/>
  </g>
  <g id="bullet-char-template(10146)" transform="scale(0.00048828125,-0.00048828125)">
   <path d="M 174,0 L 602,739 174,1481 1456,739 174,0 Z M 1358,739 L 309,1346 659,739 1358,739 Z"/>
  </g>
  <g id="bullet-char-template(10132)" transform="scale(0.00048828125,-0.00048828125)">
   <path d="M 2015,739 L 1276,0 717,0 1260,543 174,543 174,936 1260,936 717,1481 1274,1481 2015,739 Z"/>
  </g>
  <g id="bullet-char-template(10007)" transform="scale(0.00048828125,-0.00048828125)">
   <path d="M 0,-2 C -7,14 -16,27 -25,37 L 356,567 C 262,823 215,952 215,954 215,979 228,992 255,992 264,992 276,990 289,987 310,991 331,999 354,1012 L 381,999 492,748 772,1049 836,1024 860,1049 C 881,1039 901,1025 922,1006 886,937 835,863 770,784 769,783 710,716 594,584 L 774,223 C 774,196 753,168 711,139 L 727,119 C 717,90 699,76 672,76 641,76 570,178 457,381 L 164,-76 C 142,-110 111,-127 72,-127 30,-127 9,-110 8,-76 1,-67 -2,-52 -2,-32 -2,-23 -1,-13 0,-2 Z"/>
  </g>
  <g id="bullet-char-template(10004)" transform="scale(0.00048828125,-0.00048828125)">
   <path d="M 285,-33 C 182,-33 111,30 74,156 52,228 41,333 41,471 41,549 55,616 82,672 116,743 169,778 240,778 293,778 328,747 346,684 L 369,508 C 377,444 397,411 428,410 L 1163,1116 C 1174,1127 1196,1133 1229,1133 1271,1133 1292,1118 1292,1087 L 1292,965 C 1292,929 1282,901 1262,881 L 442,47 C 390,-6 338,-33 285,-33 Z"/>
  </g>
  <g id="bullet-char-template(9679)" transform="scale(0.00048828125,-0.00048828125)">
   <path d="M 813,0 C 632,0 489,54 383,161 276,268 223,411 223,592 223,773 276,916 383,1023 489,1130 632,1184 813,1184 992,1184 1136,1130 1245,1023 1353,916 1407,772 1407,592 1407,412 1353,268 1245,161 1136,54 992,0 813,0 Z"/>
  </g>
  <g id="bullet-char-template(8226)" transform="scale(0.00048828125,-0.00048828125)">
   <path d="M 346,457 C 273,457 209,483 155,535 101,586 74,649 74,723 74,796 101,859 155,911 209,963 273,989 346,989 419,989 480,963 531,910 582,859 608,796 608,723 608,648 583,586 532,535 482,483 420,457 346,457 Z"/>
  </g>
  <g id="bullet-char-template(8211)" transform="scale(0.00048828125,-0.00048828125)">
   <path d="M -4,459 L 1135,459 1135,606 -4,606 -4,459 Z"/>
  </g>
 </defs>
 <defs class="TextEmbeddedBitmaps"/>
 <g>
  <g id="id2" class="Master_Slide">
   <g id="bg-id2" class="Background"/>
   <g id="bo-id2" class="BackgroundObjects"/>
  </g>
 </g>
 <g class="SlideGroup">
  <g>
   <g id="id1" class="Slide" clip-path="url(#presentation_clip_path)">
    <g class="Page">
     <g class="com.sun.star.drawing.CustomShape">
      <g id="id3">
       <path fill="rgb(255,255,0)" stroke="none" d="M -4305,-693 L -13986,-693 -13986,-3734 5376,-3734 5376,-693 -4305,-693 Z"/>
       <path fill="none" stroke="rgb(255,255,0)" d="M -4305,-693 L -13986,-693 -13986,-3734 5376,-3734 5376,-693 -4305,-693 Z"/>
      </g>
     </g>
     <g class="com.sun.star.drawing.CustomShape">
      <g id="id4">
       <path fill="rgb(255,255,0)" stroke="none" d="M 2191,710 L -229,710 -229,-5371 4611,-5371 4611,710 2191,710 Z"/>
       <path fill="none" stroke="rgb(255,255,0)" d="M 2191,710 L -229,710 -229,-5371 4611,-5371 4611,710 2191,710 Z"/>
      </g>
     </g>
     <g class="com.sun.star.drawing.CustomShape">
      <g id="id5">
       <path fill="rgb(255,255,0)" stroke="none" d="M 3592,6792 L 25,6792 25,1178 7158,1178 7158,6792 3592,6792 Z"/>
       <path fill="none" stroke="rgb(255,255,0)" d="M 3592,6792 L 25,6792 25,1178 7158,1178 7158,6792 3592,6792 Z"/>
      </g>
     </g>
     <g class="com.sun.star.drawing.CustomShape">
      <g id="id6">
       <path fill="rgb(255,255,0)" stroke="none" d="M 9706,6792 L 7667,6792 7667,1178 11744,1178 11744,6792 9706,6792 Z"/>
       <path fill="none" stroke="rgb(255,255,0)" d="M 9706,6792 L 7667,6792 7667,1178 11744,1178 11744,6792 9706,6792 Z"/>
      </g>
     </g>
     <g class="com.sun.star.drawing.CustomShape">
      <g id="id7">
       <path fill="rgb(255,255,0)" stroke="none" d="M 3379,19986 L 1850,19986 1850,6654 4907,6654 4907,19986 3379,19986 Z"/>
       <path fill="none" stroke="rgb(255,255,0)" d="M 3379,19986 L 1850,19986 1850,6654 4907,6654 4907,19986 3379,19986 Z"/>
      </g>
     </g>
     <g class="com.sun.star.drawing.CustomShape">
      <g id="id8">
       <path fill="rgb(255,255,0)" stroke="none" d="M 6139,12640 L 4610,12640 4610,10300 7667,10300 7667,12640 6139,12640 Z"/>
       <path fill="none" stroke="rgb(255,255,0)" d="M 6139,12640 L 4610,12640 4610,10300 7667,10300 7667,12640 6139,12640 Z"/>
      </g>
     </g>
     <g class="com.sun.star.drawing.CustomShape">
      <g id="id9">
       <path fill="none" stroke="rgb(0,0,0)" stroke-width="51" d="M 7286,20123 L -14241,20123 -14241,944 28812,944 28812,20123 7286,20123 Z"/>
      </g>
     </g>
     <g class="com.sun.star.drawing.CustomShape">
      <g id="id10">
       <path fill="none" stroke="rgb(0,0,0)" stroke-width="51" d="M 7286,944 L -14241,944 -14241,-5605 28812,-5605 28812,944 7286,944 Z"/>
      </g>
     </g>
     <g class="com.sun.star.drawing.CustomShape">
      <g id="id11">
       <path fill="rgb(0,0,0)" stroke="none" d="M 7415,944 L 7414,944 7414,-5605 7416,-5605 7416,944 7415,944 Z"/>
       <path fill="none" stroke="rgb(0,0,0)" stroke-width="51" d="M 7415,944 L 7414,944 7414,-5605 7416,-5605 7416,944 7415,944 Z"/>
      </g>
     </g>
     <g class="com.sun.star.drawing.ClosedBezierShape">
      <g id="id12">
       <path fill="rgb(114,159,207)" stroke="none" d="M -13985,-2329 C -10022,-2329 -10721,-5370 -10721,-5370 L -13985,-5370 -13985,-5180 -13985,-2329 Z"/>
       <path fill="none" stroke="rgb(52,101,175)" d="M -13985,-2329 C -10022,-2329 -10721,-5370 -10721,-5370 L -13985,-5370 -13985,-5180 -13985,-2329 Z"/>
      </g>
     </g>
     <g class="com.sun.star.drawing.ClosedBezierShape">
      <g id="id13">
       <path fill="rgb(114,159,207)" stroke="none" d="M -13985,-2096 C -10022,-2096 -10721,945 -10721,945 L -13985,945 -13985,755 -13985,-2096 Z"/>
       <path fill="none" stroke="rgb(52,101,175)" d="M -13985,-2096 C -10022,-2096 -10721,945 -10721,945 L -13985,945 -13985,755 -13985,-2096 Z"/>
      </g>
     </g>
     <g class="com.sun.star.drawing.ClosedBezierShape">
      <g id="id14">
       <path fill="rgb(114,159,207)" stroke="none" d="M 4484,3518 C 7380,3518 6869,1179 6869,1179 L 4484,1179 4484,1325 4484,3518 Z"/>
       <path fill="none" stroke="rgb(52,101,175)" d="M 4484,3518 C 7380,3518 6869,1179 6869,1179 L 4484,1179 4484,1325 4484,3518 Z"/>
      </g>
     </g>
     <g class="com.sun.star.drawing.ClosedBezierShape">
      <g id="id15">
       <path fill="rgb(114,159,207)" stroke="none" d="M -356,3518 C 2540,3518 2029,1179 2029,1179 L -356,1179 -356,1325 -356,3518 Z"/>
       <path fill="none" stroke="rgb(52,101,175)" d="M -356,3518 C 2540,3518 2029,1179 2029,1179 L -356,1179 -356,1325 -356,3518 Z"/>
      </g>
     </g>
     <g class="com.sun.star.drawing.ClosedBezierShape">
      <g id="id16">
       <path fill="rgb(114,159,207)" stroke="none" d="M 4484,3518 C 1588,3518 2099,1179 2099,1179 L 4484,1179 4484,1325 4484,3518 Z"/>
       <path fill="none" stroke="rgb(52,101,175)" d="M 4484,3518 C 1588,3518 2099,1179 2099,1179 L 4484,1179 4484,1325 4484,3518 Z"/>
      </g>
     </g>
     <g class="com.sun.star.drawing.ClosedBezierShape">
      <g id="id17">
       <path fill="rgb(114,159,207)" stroke="none" d="M 4865,22463 C 1969,22463 2480,20124 2480,20124 L 4865,20124 4865,20270 4865,22463 Z"/>
       <path fill="none" stroke="rgb(52,101,175)" d="M 4865,22463 C 1969,22463 2480,20124 2480,20124 L 4865,20124 4865,20270 4865,22463 Z"/>
      </g>
     </g>
     <g class="com.sun.star.drawing.ClosedBezierShape">
      <g id="id18">
       <path fill="rgb(114,159,207)" stroke="none" d="M 7414,10534 C 5280,10534 5657,8663 5657,8663 L 7414,8663 7414,8780 7414,10534 Z"/>
       <path fill="none" stroke="rgb(52,101,175)" d="M 7414,10534 C 5280,10534 5657,8663 5657,8663 L 7414,8663 7414,8780 7414,10534 Z"/>
      </g>
     </g>
     <g class="com.sun.star.drawing.ClosedBezierShape">
      <g id="id19">
       <path fill="rgb(114,159,207)" stroke="none" d="M 7414,6792 C 5280,6792 5657,4921 5657,4921 L 7414,4921 7414,5038 7414,6792 Z"/>
       <path fill="none" stroke="rgb(52,101,175)" d="M 7414,6792 C 5280,6792 5657,4921 5657,4921 L 7414,4921 7414,5038 7414,6792 Z"/>
      </g>
     </g>
     <g class="com.sun.star.drawing.ClosedBezierShape">
      <g id="id20">
       <path fill="rgb(114,159,207)" stroke="none" d="M 7414,3050 C 5280,3050 5657,4921 5657,4921 L 7414,4921 7414,4804 7414,3050 Z"/>
       <path fill="none" stroke="rgb(52,101,175)" d="M 7414,3050 C 5280,3050 5657,4921 5657,4921 L 7414,4921 7414,4804 7414,3050 Z"/>
      </g>
     </g>
     <g class="com.sun.star.drawing.ClosedBezierShape">
      <g id="id21">
       <path fill="rgb(114,159,207)" stroke="none" d="M 7414,6792 C 5280,6792 5657,8663 5657,8663 L 7414,8663 7414,8546 7414,6792 Z"/>
       <path fill="none" stroke="rgb(52,101,175)" d="M 7414,6792 C 5280,6792 5657,8663 5657,8663 L 7414,8663 7414,8546 7414,6792 Z"/>
      </g>
     </g>
     <g class="com.sun.star.drawing.CustomShape">
      <g id="id22">
       <path fill="rgb(102,255,255)" stroke="none" d="M 8942,12639 L 7413,12639 7413,9598 10470,9598 10470,12639 8942,12639 Z"/>
       <path fill="none" stroke="rgb(52,101,175)" d="M 8942,12639 L 7413,12639 7413,9598 10470,9598 10470,12639 8942,12639 Z"/>
      </g>
     </g>
     <g class="com.sun.star.drawing.CustomShape">
      <g id="id23">
       <path fill="rgb(114,159,207)" stroke="none" d="M 10471,20124 L 10470,20124 10470,12640 10471,12640 10471,20124 10471,20124 Z"/>
       <path fill="none" stroke="rgb(0,0,0)" stroke-width="51" d="M 10471,20124 L 10470,20124 10470,12640 10471,12640 10471,20124 10471,20124 Z"/>
      </g>
     </g>
     <g class="com.sun.star.drawing.CustomShape">
      <g id="id24">
       <path fill="rgb(114,159,207)" stroke="none" d="M 7541,4921 L 7414,4921 7414,945 7668,945 7668,4921 7541,4921 Z"/>
       <path fill="none" stroke="rgb(0,0,0)" stroke-width="51" d="M 7541,4921 L 7414,4921 7414,945 7668,945 7668,4921 7541,4921 Z"/>
      </g>
     </g>
     <g class="com.sun.star.drawing.CustomShape">
      <g id="id25">
       <path fill="rgb(114,159,207)" stroke="none" d="M 7669,9364 L 7668,9364 7668,8663 7670,8663 7670,9364 7669,9364 Z"/>
       <path fill="none" stroke="rgb(0,0,0)" stroke-width="51" d="M 7669,9364 L 7668,9364 7668,8663 7670,8663 7670,9364 7669,9364 Z"/>
      </g>
     </g>
     <g class="com.sun.star.drawing.ClosedBezierShape">
      <g id="id26">
       <path fill="rgb(114,159,207)" stroke="none" d="M 10853,3518 C 7957,3518 8468,1179 8468,1179 L 10853,1179 10853,1325 10853,3518 Z"/>
       <path fill="none" stroke="rgb(52,101,175)" d="M 10853,3518 C 7957,3518 8468,1179 8468,1179 L 10853,1179 10853,1325 10853,3518 Z"/>
      </g>
     </g>
     <g class="com.sun.star.drawing.ClosedBezierShape">
      <g id="id27">
       <path fill="rgb(114,159,207)" stroke="none" d="M -354,3518 C -3250,3518 -2739,1179 -2739,1179 L -354,1179 -354,1325 -354,3518 Z"/>
       <path fill="none" stroke="rgb(52,101,175)" d="M -354,3518 C -3250,3518 -2739,1179 -2739,1179 L -354,1179 -354,1325 -354,3518 Z"/>
      </g>
     </g>
     <g class="com.sun.star.drawing.ClosedBezierShape">
      <g id="id28">
       <path fill="rgb(102,255,255)" stroke="none" d="M 7286,12640 C 4390,12640 4901,10301 4901,10301 L 7286,10301 7286,10447 7286,12640 Z"/>
       <path fill="none" stroke="rgb(52,101,175)" d="M 7286,12640 C 4390,12640 4901,10301 4901,10301 L 7286,10301 7286,10447 7286,12640 Z"/>
      </g>
     </g>
     <g class="com.sun.star.drawing.CustomShape">
      <g id="id29">
       <path fill="rgb(102,255,153)" stroke="none" d="M -13263,1412 C -13497,1412 -13730,1645 -13730,1879 L -13730,19422 C -13730,19656 -13497,19890 -13263,19890 L -11395,19890 C -11162,19890 -10928,19656 -10928,19422 L -10928,1879 C -10928,1645 -11162,1412 -11395,1412 L -13263,1412 Z M -13730,1412 L -13730,1412 Z M -10927,19890 L -10927,19890 Z"/>
       <path fill="none" stroke="rgb(255,255,0)" d="M -13263,1412 C -13497,1412 -13730,1645 -13730,1879 L -13730,19422 C -13730,19656 -13497,19890 -13263,19890 L -11395,19890 C -11162,19890 -10928,19656 -10928,19422 L -10928,1879 C -10928,1645 -11162,1412 -11395,1412 L -13263,1412 Z"/>
       <path fill="none" stroke="rgb(255,255,0)" d="M -13730,1412 L -13730,1412 Z"/>
       <path fill="none" stroke="rgb(255,255,0)" d="M -10927,19890 L -10927,19890 Z"/>
      </g>
     </g>
     <g class="com.sun.star.drawing.CustomShape">
      <g id="id30">
       <path fill="rgb(255,51,153)" stroke="none" d="M -13689,8896 C -13838,8896 -13986,9044 -13986,9193 L -13986,11874 C -13986,12023 -13838,12172 -13689,12172 L -12499,12172 C -12350,12172 -12201,12023 -12201,11874 L -12201,9193 C -12201,9044 -12350,8896 -12499,8896 L -13689,8896 Z M -13986,8896 L -13986,8896 Z M -12201,12172 L -12201,12172 Z"/>
       <path fill="none" stroke="rgb(255,255,0)" d="M -13689,8896 C -13838,8896 -13986,9044 -13986,9193 L -13986,11874 C -13986,12023 -13838,12172 -13689,12172 L -12499,12172 C -12350,12172 -12201,12023 -12201,11874 L -12201,9193 C -12201,9044 -12350,8896 -12499,8896 L -13689,8896 Z"/>
       <path fill="none" stroke="rgb(255,255,0)" d="M -13986,8896 L -13986,8896 Z"/>
       <path fill="none" stroke="rgb(255,255,0)" d="M -12201,12172 L -12201,12172 Z"/>
      </g>
     </g>
     <g class="com.sun.star.drawing.CustomShape">
      <g id="id31">
       <path fill="rgb(255,51,153)" stroke="none" d="M -2502,18254 C -2639,18254 -2775,18390 -2775,18527 L -2775,19619 C -2775,19756 -2639,19893 -2502,19893 L 774,19893 C 911,19893 1048,19756 1048,19619 L 1048,18527 C 1048,18390 911,18254 774,18254 L -2502,18254 Z M -2775,18254 L -2775,18254 Z M 1048,19893 L 1048,19893 Z"/>
       <path fill="none" stroke="rgb(255,255,0)" d="M -2502,18254 C -2639,18254 -2775,18390 -2775,18527 L -2775,19619 C -2775,19756 -2639,19893 -2502,19893 L 774,19893 C 911,19893 1048,19756 1048,19619 L 1048,18527 C 1048,18390 911,18254 774,18254 L -2502,18254 Z"/>
       <path fill="none" stroke="rgb(255,255,0)" d="M -2775,18254 L -2775,18254 Z"/>
       <path fill="none" stroke="rgb(255,255,0)" d="M 1048,19893 L 1048,19893 Z"/>
      </g>
     </g>
     <g class="com.sun.star.drawing.CustomShape">
      <g id="id32">
       <path fill="rgb(102,255,102)" stroke="none" d="M 6182,12873 C 5779,12873 5376,13276 5376,13679 L 5376,18851 C 5376,19254 5779,19657 6182,19657 L 9410,19657 C 9813,19657 10217,19254 10217,18851 L 10217,13679 C 10217,13276 9813,12873 9410,12873 L 6182,12873 Z M 5376,12873 L 5376,12873 Z M 10217,19658 L 10217,19658 Z"/>
       <path fill="none" stroke="rgb(255,255,0)" d="M 6182,12873 C 5779,12873 5376,13276 5376,13679 L 5376,18851 C 5376,19254 5779,19657 6182,19657 L 9410,19657 C 9813,19657 10217,19254 10217,18851 L 10217,13679 C 10217,13276 9813,12873 9410,12873 L 6182,12873 Z"/>
       <path fill="none" stroke="rgb(255,255,0)" d="M 5376,12873 L 5376,12873 Z"/>
       <path fill="none" stroke="rgb(255,255,0)" d="M 10217,19658 L 10217,19658 Z"/>
      </g>
     </g>
     <g class="com.sun.star.drawing.CustomShape">
      <g id="id33">
       <path fill="rgb(204,153,0)" stroke="none" d="M 12389,1178 C 12194,1178 11999,1373 11999,1568 L 11999,3128 C 11999,3323 12194,3519 12389,3519 L 25621,3519 C 25816,3519 26012,3323 26012,3128 L 26012,1568 C 26012,1373 25816,1178 25621,1178 L 12389,1178 Z M 11999,1178 L 11999,1178 Z M 26012,3519 L 26012,3519 Z"/>
       <path fill="none" stroke="rgb(255,255,0)" d="M 12389,1178 C 12194,1178 11999,1373 11999,1568 L 11999,3128 C 11999,3323 12194,3519 12389,3519 L 25621,3519 C 25816,3519 26012,3323 26012,3128 L 26012,1568 C 26012,1373 25816,1178 25621,1178 L 12389,1178 Z"/>
       <path fill="none" stroke="rgb(255,255,0)" d="M 11999,1178 L 11999,1178 Z"/>
       <path fill="none" stroke="rgb(255,255,0)" d="M 26012,3519 L 26012,3519 Z"/>
      </g>
     </g>
     <g class="com.sun.star.drawing.CustomShape">
      <g id="id34">
       <path fill="rgb(0,0,255)" stroke="none" d="M -11640,1647 C -12049,1647 -12458,2056 -12458,2465 L -12458,5741 C -12458,6150 -12049,6560 -11640,6560 L -2067,6560 C -1658,6560 -1248,6150 -1248,5741 L -1248,2465 C -1248,2056 -1658,1647 -2067,1647 L -11640,1647 Z M -12458,1647 L -12458,1647 Z M -1248,6560 L -1248,6560 Z"/>
       <path fill="none" stroke="rgb(255,255,0)" d="M -11640,1647 C -12049,1647 -12458,2056 -12458,2465 L -12458,5741 C -12458,6150 -12049,6560 -11640,6560 L -2067,6560 C -1658,6560 -1248,6150 -1248,5741 L -1248,2465 C -1248,2056 -1658,1647 -2067,1647 L -11640,1647 Z"/>
       <path fill="none" stroke="rgb(255,255,0)" d="M -12458,1647 L -12458,1647 Z"/>
       <path fill="none" stroke="rgb(255,255,0)" d="M -1248,6560 L -1248,6560 Z"/>
      </g>
     </g>
     <g class="com.sun.star.drawing.CustomShape">
      <g id="id35">
       <path fill="rgb(255,255,255)" stroke="none" d="M 25193,19669 L 22462,19669 22462,17891 27923,17891 27923,19669 25193,19669 Z"/>
       <path fill="none" stroke="rgb(0,0,0)" d="M 25193,19669 L 22462,19669 22462,17891 27923,17891 27923,19669 25193,19669 Z"/>
      </g>
     </g>
     <g class="com.sun.star.drawing.CustomShape">
      <g id="id36">
       <path fill="rgb(255,255,255)" stroke="none" d="M 18970,19669 L 15858,19669 15858,17891 22081,17891 22081,19669 18970,19669 Z"/>
       <path fill="none" stroke="rgb(0,0,0)" d="M 18970,19669 L 15858,19669 15858,17891 22081,17891 22081,19669 18970,19669 Z"/>
      </g>
     </g>
     <g class="com.sun.star.drawing.CustomShape">
      <g id="id37">
       <path fill="rgb(255,255,255)" stroke="none" d="M 11795,19922 L 10652,19922 10652,14969 12938,14969 12938,19922 11795,19922 Z"/>
       <path fill="none" stroke="rgb(0,0,0)" d="M 11795,19922 L 10652,19922 10652,14969 12938,14969 12938,19922 11795,19922 Z"/>
      </g>
     </g>
     <g class="com.sun.star.drawing.CustomShape">
      <g id="id38">
       <path fill="rgb(255,255,255)" stroke="none" d="M 27035,8493 L 26146,8493 26146,4429 27924,4429 27924,8493 27035,8493 Z"/>
       <path fill="none" stroke="rgb(0,0,0)" d="M 27035,8493 L 26146,8493 26146,4429 27924,4429 27924,8493 27035,8493 Z"/>
      </g>
     </g>
     <g class="Group">
      <g class="com.sun.star.drawing.CustomShape">
       <g id="id39">
        <path fill="rgb(255,255,255)" stroke="none" d="M 17827,14228 L 17001,14228 17001,8619 18652,8619 18652,14228 17827,14228 Z"/>
        <path fill="none" stroke="rgb(0,0,0)" d="M 17827,14228 L 17001,14228 17001,8619 18652,8619 18652,14228 17827,14228 Z"/>
       </g>
      </g>
      <g class="com.sun.star.drawing.CustomShape">
       <g id="id40">
        <path fill="rgb(255,255,255)" stroke="none" d="M 16811,14715 L 16620,14715 16620,13318 17001,13318 17001,14715 16811,14715 Z"/>
        <path fill="none" stroke="rgb(0,0,0)" d="M 16811,14715 L 16620,14715 16620,13318 17001,13318 17001,14715 16811,14715 Z"/>
       </g>
      </g>
      <g class="com.sun.star.drawing.CustomShape">
       <g id="id41">
        <path fill="rgb(255,255,255)" stroke="none" d="M 17510,14716 L 17002,14716 17002,14208 18018,14208 18018,14716 17510,14716 Z"/>
        <path fill="none" stroke="rgb(0,0,0)" d="M 17510,14716 L 17002,14716 17002,14208 18018,14208 18018,14716 17510,14716 Z"/>
       </g>
      </g>
      <g class="com.sun.star.drawing.CustomShape">
       <g id="id42">
        <path fill="rgb(255,255,255)" stroke="none" d="M 16875,10017 L 16748,10017 16748,8747 17002,8747 17002,10017 16875,10017 Z"/>
        <path fill="none" stroke="rgb(0,0,0)" d="M 16875,10017 L 16748,10017 16748,8747 17002,8747 17002,10017 16875,10017 Z"/>
       </g>
      </g>
     </g>
     <g class="Group">
      <g class="com.sun.star.drawing.CustomShape">
       <g id="id43">
        <path fill="rgb(255,255,255)" stroke="none" d="M 26908,14228 L 26146,14228 26146,8619 27670,8619 27670,14228 26908,14228 Z"/>
        <path fill="none" stroke="rgb(0,0,0)" d="M 26908,14228 L 26146,14228 26146,8619 27670,8619 27670,14228 26908,14228 Z"/>
       </g>
      </g>
      <g class="com.sun.star.drawing.CustomShape">
       <g id="id44">
        <path fill="rgb(255,255,255)" stroke="none" d="M 26781,14609 L 26146,14609 26146,14228 27416,14228 27416,14609 26781,14609 Z"/>
        <path fill="none" stroke="rgb(0,0,0)" d="M 26781,14609 L 26146,14609 26146,14228 27416,14228 27416,14609 26781,14609 Z"/>
       </g>
      </g>
      <g class="com.sun.star.drawing.CustomShape">
       <g id="id45">
        <path fill="rgb(255,255,255)" stroke="none" d="M 26019,10037 L 25892,10037 25892,8640 26146,8640 26146,10037 26019,10037 Z"/>
        <path fill="none" stroke="rgb(0,0,0)" d="M 26019,10037 L 25892,10037 25892,8640 26146,8640 26146,10037 26019,10037 Z"/>
       </g>
      </g>
     </g>
     <g class="com.sun.star.drawing.CustomShape">
      <g id="id46">
       <path fill="rgb(255,255,255)" stroke="none" d="M 26844,17128 L 26145,17128 26145,15731 27542,15731 27542,17128 26844,17128 Z"/>
       <path fill="none" stroke="rgb(0,0,0)" d="M 26844,17128 L 26145,17128 26145,15731 27542,15731 27542,17128 26844,17128 Z"/>
      </g>
     </g>
     <g class="com.sun.star.drawing.TextShape">
      <g id="id47">
       <text class="TextShape"><tspan class="TextParagraph" font-family="Arial, sans-serif" font-size="635px" font-weight="400"><tspan class="TextPosition" x="20975" y="11603"><tspan fill="rgb(0,0,0)" stroke="none">3 Werkbänke parallel</tspan></tspan></tspan></text>
      </g>
     </g>
     <g class="com.sun.star.drawing.TextShape">
      <g id="id48">
       <text class="TextShape"><tspan class="TextParagraph" font-family="Arial, sans-serif" font-size="635px" font-weight="400"><tspan class="TextPosition" x="24999" y="16609"><tspan fill="rgb(0,0,0)" stroke="none">Bohrständer</tspan></tspan></tspan></text>
      </g>
     </g>
     <g class="com.sun.star.drawing.TextShape">
      <g id="id49">
       <text class="TextShape"><tspan class="TextParagraph" font-family="Arial, sans-serif" font-size="635px" font-weight="400"><tspan class="TextPosition" x="16998" y="18895"><tspan fill="rgb(0,0,0)" stroke="none">Drehmaschine</tspan></tspan></tspan></text>
      </g>
     </g>
     <g class="com.sun.star.drawing.TextShape">
      <g id="id50">
       <text class="TextShape"><tspan class="TextParagraph" font-family="Arial, sans-serif" font-size="635px" font-weight="400"><tspan class="TextPosition" x="11283" y="18514"><tspan fill="rgb(0,0,0)" stroke="none">Holzablage</tspan></tspan></tspan></text>
      </g>
     </g>
     <g class="Group">
      <g class="com.sun.star.drawing.CustomShape">
       <g id="id51">
        <path fill="rgb(255,255,255)" stroke="none" d="M 19603,8597 L 20429,8597 20429,14206 18778,14206 18778,8597 19603,8597 Z"/>
        <path fill="none" stroke="rgb(0,0,0)" d="M 19603,8597 L 20429,8597 20429,14206 18778,14206 18778,8597 19603,8597 Z"/>
       </g>
      </g>
      <g class="com.sun.star.drawing.CustomShape">
       <g id="id52">
        <path fill="rgb(255,255,255)" stroke="none" d="M 20620,8110 L 20810,8110 20810,9507 20429,9507 20429,8110 20620,8110 Z"/>
        <path fill="none" stroke="rgb(0,0,0)" d="M 20620,8110 L 20810,8110 20810,9507 20429,9507 20429,8110 20620,8110 Z"/>
       </g>
      </g>
      <g class="com.sun.star.drawing.CustomShape">
       <g id="id53">
        <path fill="rgb(255,255,255)" stroke="none" d="M 19923,8112 L 20431,8112 20431,8620 19415,8620 19415,8112 19923,8112 Z"/>
        <path fill="none" stroke="rgb(0,0,0)" d="M 19923,8112 L 20431,8112 20431,8620 19415,8620 19415,8112 19923,8112 Z"/>
       </g>
      </g>
      <g class="com.sun.star.drawing.CustomShape">
       <g id="id54">
        <path fill="rgb(255,255,255)" stroke="none" d="M 20558,12811 L 20685,12811 20685,14081 20431,14081 20431,12811 20558,12811 Z"/>
        <path fill="none" stroke="rgb(0,0,0)" d="M 20558,12811 L 20685,12811 20685,14081 20431,14081 20431,12811 20558,12811 Z"/>
       </g>
      </g>
     </g>
     <g class="Group">
      <g class="com.sun.star.drawing.CustomShape">
       <g id="id55">
        <path fill="rgb(255,153,153)" fill-opacity="0.298" stroke="rgb(255,255,255)" stroke-opacity="0.298" d="M 17510,13191 C 19310,13191 20685,14098 20685,15286 20685,16474 19310,17382 17510,17382 15710,17382 14335,16474 14335,15286 14335,14098 15710,13191 17510,13191 Z M 14335,13191 L 14335,13191 Z M 20686,17383 L 20686,17383 Z"/>
        <path fill="none" stroke="rgb(255,51,51)" d="M 17510,13191 C 19310,13191 20685,14098 20685,15286 20685,16474 19310,17382 17510,17382 15710,17382 14335,16474 14335,15286 14335,14098 15710,13191 17510,13191 Z"/>
        <path fill="none" stroke="rgb(255,51,51)" d="M 14335,13191 L 14335,13191 Z"/>
        <path fill="none" stroke="rgb(255,51,51)" d="M 20686,17383 L 20686,17383 Z"/>
       </g>
      </g>
      <g class="com.sun.star.drawing.CustomShape">
       <g id="id56">
        <path fill="rgb(255,153,153)" fill-opacity="0.298" stroke="rgb(255,255,255)" stroke-opacity="0.298" d="M 16367,7096 C 17807,7096 18907,8526 18907,10398 18907,12270 17807,13700 16367,13700 14927,13700 13827,12270 13827,10398 13827,8526 14927,7096 16367,7096 Z M 13827,7096 L 13827,7096 Z M 18908,13701 L 18908,13701 Z"/>
        <path fill="none" stroke="rgb(255,51,51)" d="M 16367,7096 C 17807,7096 18907,8526 18907,10398 18907,12270 17807,13700 16367,13700 14927,13700 13827,12270 13827,10398 13827,8526 14927,7096 16367,7096 Z"/>
        <path fill="none" stroke="rgb(255,51,51)" d="M 13827,7096 L 13827,7096 Z"/>
        <path fill="none" stroke="rgb(255,51,51)" d="M 18908,13701 L 18908,13701 Z"/>
       </g>
      </g>
      <g class="com.sun.star.drawing.CustomShape">
       <g id="id57">
        <path fill="rgb(255,153,153)" fill-opacity="0.298" stroke="rgb(255,255,255)" stroke-opacity="0.298" d="M 16302,10017 C 17850,10017 19033,11447 19033,13319 19033,15191 17850,16621 16302,16621 14754,16621 13572,15191 13572,13319 13572,11447 14754,10017 16302,10017 Z M 13572,10017 L 13572,10017 Z M 19034,16622 L 19034,16622 Z"/>
        <path fill="none" stroke="rgb(255,51,51)" d="M 16302,10017 C 17850,10017 19033,11447 19033,13319 19033,15191 17850,16621 16302,16621 14754,16621 13572,15191 13572,13319 13572,11447 14754,10017 16302,10017 Z"/>
        <path fill="none" stroke="rgb(255,51,51)" d="M 13572,10017 L 13572,10017 Z"/>
        <path fill="none" stroke="rgb(255,51,51)" d="M 19034,16622 L 19034,16622 Z"/>
       </g>
      </g>
     </g>
     <g class="Group">
      <g class="com.sun.star.drawing.CustomShape">
       <g id="id58">
        <path fill="rgb(153,255,153)" fill-opacity="0.298" stroke="rgb(255,255,255)" stroke-opacity="0.298" d="M 25892,12683 C 27692,12683 29067,13590 29067,14778 29067,15966 27692,16874 25892,16874 24092,16874 22717,15966 22717,14778 22717,13590 24092,12683 25892,12683 Z M 22717,12683 L 22717,12683 Z M 29068,16875 L 29068,16875 Z"/>
        <path fill="none" stroke="rgb(153,255,102)" d="M 25892,12683 C 27692,12683 29067,13590 29067,14778 29067,15966 27692,16874 25892,16874 24092,16874 22717,15966 22717,14778 22717,13590 24092,12683 25892,12683 Z"/>
        <path fill="none" stroke="rgb(153,255,102)" d="M 22717,12683 L 22717,12683 Z"/>
        <path fill="none" stroke="rgb(153,255,102)" d="M 29068,16875 L 29068,16875 Z"/>
       </g>
      </g>
      <g class="com.sun.star.drawing.CustomShape">
       <g id="id59">
        <path fill="rgb(153,255,153)" fill-opacity="0.298" stroke="rgb(255,255,255)" stroke-opacity="0.298" d="M 24749,6588 C 26189,6588 27289,8018 27289,9890 27289,11762 26189,13192 24749,13192 23309,13192 22209,11762 22209,9890 22209,8018 23309,6588 24749,6588 Z M 22209,6588 L 22209,6588 Z M 27290,13193 L 27290,13193 Z"/>
        <path fill="none" stroke="rgb(153,255,102)" d="M 24749,6588 C 26189,6588 27289,8018 27289,9890 27289,11762 26189,13192 24749,13192 23309,13192 22209,11762 22209,9890 22209,8018 23309,6588 24749,6588 Z"/>
        <path fill="none" stroke="rgb(153,255,102)" d="M 22209,6588 L 22209,6588 Z"/>
        <path fill="none" stroke="rgb(153,255,102)" d="M 27290,13193 L 27290,13193 Z"/>
       </g>
      </g>
      <g class="com.sun.star.drawing.CustomShape">
       <g id="id60">
        <path fill="rgb(153,255,153)" fill-opacity="0.298" stroke="rgb(255,255,255)" stroke-opacity="0.298" d="M 24684,9509 C 26232,9509 27415,10939 27415,12811 27415,14683 26232,16113 24684,16113 23136,16113 21954,14683 21954,12811 21954,10939 23136,9509 24684,9509 Z M 21954,9509 L 21954,9509 Z M 27416,16114 L 27416,16114 Z"/>
        <path fill="none" stroke="rgb(153,255,102)" d="M 24684,9509 C 26232,9509 27415,10939 27415,12811 27415,14683 26232,16113 24684,16113 23136,16113 21954,14683 21954,12811 21954,10939 23136,9509 24684,9509 Z"/>
        <path fill="none" stroke="rgb(153,255,102)" d="M 21954,9509 L 21954,9509 Z"/>
        <path fill="none" stroke="rgb(153,255,102)" d="M 27416,16114 L 27416,16114 Z"/>
       </g>
      </g>
     </g>
     <g class="Group">
      <g class="com.sun.star.drawing.CustomShape">
       <g id="id61">
        <path fill="rgb(153,153,255)" fill-opacity="0.298" stroke="rgb(255,255,255)" stroke-opacity="0.298" d="M 20177,9888 C 18377,9888 17002,8981 17002,7793 17002,6605 18377,5697 20177,5697 21977,5697 23352,6605 23352,7793 23352,8981 21977,9888 20177,9888 Z M 23352,9888 L 23352,9888 Z M 17001,5696 L 17001,5696 Z"/>
        <path fill="none" stroke="rgb(255,51,51)" d="M 20177,9888 C 18377,9888 17002,8981 17002,7793 17002,6605 18377,5697 20177,5697 21977,5697 23352,6605 23352,7793 23352,8981 21977,9888 20177,9888 Z"/>
        <path fill="none" stroke="rgb(255,51,51)" d="M 23352,9888 L 23352,9888 Z"/>
        <path fill="none" stroke="rgb(255,51,51)" d="M 17001,5696 L 17001,5696 Z"/>
       </g>
      </g>
      <g class="com.sun.star.drawing.CustomShape">
       <g id="id62">
        <path fill="rgb(153,153,255)" fill-opacity="0.298" stroke="rgb(255,255,255)" stroke-opacity="0.298" d="M 21320,15986 C 19880,15986 18780,14556 18780,12684 18780,10812 19880,9382 21320,9382 22760,9382 23860,10812 23860,12684 23860,14556 22760,15986 21320,15986 Z M 23860,15986 L 23860,15986 Z M 18779,9381 L 18779,9381 Z"/>
        <path fill="none" stroke="rgb(255,51,51)" d="M 21320,15986 C 19880,15986 18780,14556 18780,12684 18780,10812 19880,9382 21320,9382 22760,9382 23860,10812 23860,12684 23860,14556 22760,15986 21320,15986 Z"/>
        <path fill="none" stroke="rgb(255,51,51)" d="M 23860,15986 L 23860,15986 Z"/>
        <path fill="none" stroke="rgb(255,51,51)" d="M 18779,9381 L 18779,9381 Z"/>
       </g>
      </g>
      <g class="com.sun.star.drawing.CustomShape">
       <g id="id63">
        <path fill="rgb(153,153,255)" fill-opacity="0.298" stroke="rgb(255,255,255)" stroke-opacity="0.298" d="M 21382,13065 C 19834,13065 18651,11635 18651,9763 18651,7891 19834,6461 21382,6461 22930,6461 24112,7891 24112,9763 24112,11635 22930,13065 21382,13065 Z M 24112,13065 L 24112,13065 Z M 18650,6460 L 18650,6460 Z"/>
        <path fill="none" stroke="rgb(255,51,51)" d="M 21382,13065 C 19834,13065 18651,11635 18651,9763 18651,7891 19834,6461 21382,6461 22930,6461 24112,7891 24112,9763 24112,11635 22930,13065 21382,13065 Z"/>
        <path fill="none" stroke="rgb(255,51,51)" d="M 24112,13065 L 24112,13065 Z"/>
        <path fill="none" stroke="rgb(255,51,51)" d="M 18650,6460 L 18650,6460 Z"/>
       </g>
      </g>
     </g>
     <g class="com.sun.star.drawing.CustomShape">
      <g id="id64">
       <path fill="rgb(255,51,255)" fill-opacity="0.102" stroke="rgb(255,255,255)" stroke-opacity="0.102" d="M 25384,14716 C 26392,14716 27162,15486 27162,16494 27162,17502 26392,18272 25384,18272 24376,18272 23606,17502 23606,16494 23606,15486 24376,14716 25384,14716 Z M 23606,14716 L 23606,14716 Z M 27163,18273 L 27163,18273 Z"/>
       <path fill="none" stroke="rgb(255,51,255)" d="M 25384,14716 C 26392,14716 27162,15486 27162,16494 27162,17502 26392,18272 25384,18272 24376,18272 23606,17502 23606,16494 23606,15486 24376,14716 25384,14716 Z"/>
       <path fill="none" stroke="rgb(255,51,255)" d="M 23606,14716 L 23606,14716 Z"/>
       <path fill="none" stroke="rgb(255,51,255)" d="M 27163,18273 L 27163,18273 Z"/>
      </g>
     </g>
     <g class="com.sun.star.drawing.TextShape">
      <g id="id65">
       <text class="TextShape"><tspan class="TextParagraph" font-family="Arial, sans-serif" font-size="635px" font-weight="400"><tspan class="TextPosition" x="23221" y="18969"><tspan fill="rgb(0,0,0)" stroke="none">Schreibtisch</tspan></tspan></tspan></text>
      </g>
     </g>
     <g class="com.sun.star.drawing.CustomShape">
      <g id="id66">
       <path fill="rgb(255,102,0)" fill-opacity="0.102" stroke="rgb(255,255,255)" stroke-opacity="0.102" d="M 25765,3794 C 27349,3794 28559,5059 28559,6715 28559,8371 27349,9636 25765,9636 24181,9636 22971,8371 22971,6715 22971,5059 24181,3794 25765,3794 Z M 22971,3794 L 22971,3794 Z M 28560,9637 L 28560,9637 Z"/>
       <path fill="none" stroke="rgb(255,102,0)" d="M 25765,3794 C 27349,3794 28559,5059 28559,6715 28559,8371 27349,9636 25765,9636 24181,9636 22971,8371 22971,6715 22971,5059 24181,3794 25765,3794 Z"/>
       <path fill="none" stroke="rgb(255,102,0)" d="M 22971,3794 L 22971,3794 Z"/>
       <path fill="none" stroke="rgb(255,102,0)" d="M 28560,9637 L 28560,9637 Z"/>
      </g>
     </g>
     <g class="com.sun.star.drawing.CustomShape">
      <g id="id67">
       <path fill="rgb(0,204,255)" fill-opacity="0.102" stroke="rgb(255,255,255)" stroke-opacity="0.102" d="M 19034,15097 C 20906,15097 22336,16087 22336,17383 22336,18679 20906,19669 19034,19669 17162,19669 15732,18679 15732,17383 15732,16087 17162,15097 19034,15097 Z M 15732,15097 L 15732,15097 Z M 22337,19670 L 22337,19670 Z"/>
       <path fill="none" stroke="rgb(0,204,255)" d="M 19034,15097 C 20906,15097 22336,16087 22336,17383 22336,18679 20906,19669 19034,19669 17162,19669 15732,18679 15732,17383 15732,16087 17162,15097 19034,15097 Z"/>
       <path fill="none" stroke="rgb(0,204,255)" d="M 15732,15097 L 15732,15097 Z"/>
       <path fill="none" stroke="rgb(0,204,255)" d="M 22337,19670 L 22337,19670 Z"/>
      </g>
     </g>
    </g>
   </g>
  </g>
 </g>
</svg>