<?xml version="1.0" encoding="UTF-8"?>
<!DOCTYPE svg PUBLIC "-//W3C//DTD SVG 1.1//EN" "http://www.w3.org/Graphics/SVG/1.1/DTD/svg11.dtd">
<svg version="1.2" width="297mm" height="210mm" viewBox="0 0 29700 21000" preserveAspectRatio="xMidYMid" fill-rule="evenodd" clip-path="url(#presentation_clip_path)" stroke-width="28.222" stroke-linejoin="round" xmlns="http://www.w3.org/2000/svg" xmlns:ooo="http://xml.openoffice.org/svg/export" xmlns:xlink="http://www.w3.org/1999/xlink" xml:space="preserve">
 <defs class="ClipPathGroup">
  <clipPath id="presentation_clip_path" clipPathUnits="userSpaceOnUse">
   <rect x="0" y="0" width="29700" height="21000"/>
  </clipPath>
 </defs>
 <defs class="TextShapeIndex">
  <g ooo:slide="id1" ooo:id-list="id3 id4 id5 id6 id7 id8 id9 id10 id11 id12 id13 id14 id15 id16 id17 id18 id19 id20 id21 id22 id23 id24 id25 id26"/>
 </defs>
 <defs class="EmbeddedBulletChars">
  <g id="bullet-char-template(57356)" transform="scale(0.00048828125,-0.00048828125)">
   <path d="M 580,1141 L 1163,571 580,0 -4,571 580,1141 Z"/>
  </g>
  <g id="bullet-char-template(57354)" transform="scale(0.00048828125,-0.00048828125)">
   <path d="M 8,1128 L 1137,1128 1137,0 8,0 8,1128 Z"/>
  </g>
  <g id="bullet-char-template(10146)" transform="scale(0.00048828125,-0.00048828125)">
   <path d="M 174,0 L 602,739 174,1481 1456,739 174,0 Z M 1358,739 L 309,1346 659,739 1358,739 Z"/>
  </g>
  <g id="bullet-char-template(10132)" transform="scale(0.00048828125,-0.00048828125)">
   <path d="M 2015,739 L 1276,0 717,0 1260,543 174,543 174,936 1260,936 717,1481 1274,1481 2015,739 Z"/>
  </g>
  <g id="bullet-char-template(10007)" transform="scale(0.00048828125,-0.00048828125)">
   <path d="M 0,-2 C -7,14 -16,27 -25,37 L 356,567 C 262,823 215,952 215,954 215,979 228,992 255,992 264,992 276,990 289,987 310,991 331,999 354,1012 L 381,999 492,748 772,1049 836,1024 860,1049 C 881,1039 901,1025 922,1006 886,937 835,863 770,784 769,783 710,716 594,584 L 774,223 C 774,196 753,168 711,139 L 727,119 C 717,90 699,76 672,76 641,76 570,178 457,381 L 164,-76 C 142,-110 111,-127 72,-127 30,-127 9,-110 8,-76 1,-67 -2,-52 -2,-32 -2,-23 -1,-13 0,-2 Z"/>
  </g>
  <g id="bullet-char-template(10004)" transform="scale(0.00048828125,-0.00048828125)">
   <path d="M 285,-33 C 182,-33 111,30 74,156 52,228 41,333 41,471 41,549 55,616 82,672 116,743 169,778 240,778 293,778 328,747 346,684 L 369,508 C 377,444 397,411 428,410 L 1163,1116 C 1174,1127 1196,1133 1229,1133 1271,1133 1292,1118 1292,1087 L 1292,965 C 1292,929 1282,901 1262,881 L 442,47 C 390,-6 338,-33 285,-33 Z"/>
  </g>
  <g id="bullet-char-template(9679)" transform="scale(0.00048828125,-0.00048828125)">
   <path d="M 813,0 C 632,0 489,54 383,161 276,268 223,411 223,592 223,773 276,916 383,1023 489,1130 632,1184 813,1184 992,1184 1136,1130 1245,1023 1353,916 1407,772 1407,592 1407,412 1353,268 1245,161 1136,54 992,0 813,0 Z"/>
  </g>
  <g id="bullet-char-template(8226)" transform="scale(0.00048828125,-0.00048828125)">
   <path d="M 346,457 C 273,457 209,483 155,535 101,586 74,649 74,723 74,796 101,859 155,911 209,963 273,989 346,989 419,989 480,963 531,910 582,859 608,796 608,723 608,648 583,586 532,535 482,483 420,457 346,457 Z"/>
  </g>
  <g id="bullet-char-template(8211)" transform="scale(0.00048828125,-0.00048828125)">
   <path d="M -4,459 L 1135,459 1135,606 -4,606 -4,459 Z"/>
  </g>
 </defs>
 <defs class="TextEmbeddedBitmaps"/>
 <g>
  <g id="id2" class="Master_Slide">
   <g id="bg-id2" class="Background"/>
   <g id="bo-id2" class="BackgroundObjects"/>
  </g>
 </g>
 <g class="SlideGroup">
  <g>
   <g id="id1" class="Slide" clip-path="url(#presentation_clip_path)">
    <g class="Page">
     <g class="com.sun.star.drawing.CustomShape">
      <g id="id3">
       <path fill="none" stroke="rgb(0,0,0)" stroke-width="51" d="M 15033,18399 L 4301,18399 4301,7985 25764,7985 25764,18399 15033,18399 Z"/>
      </g>
     </g>
     <g class="com.sun.star.drawing.CustomShape">
      <g id="id4">
       <path fill="none" stroke="rgb(0,0,0)" stroke-width="51" d="M 15033,7985 L 4301,7985 4301,4429 25764,4429 25764,7985 15033,7985 Z"/>
      </g>
     </g>
     <g class="com.sun.star.drawing.CustomShape">
      <g id="id5">
       <path fill="rgb(0,0,0)" stroke="none" d="M 15097,7985 L 15096,7985 15096,4429 15097,4429 15097,7985 15097,7985 Z"/>
       <path fill="none" stroke="rgb(0,0,0)" stroke-width="51" d="M 15097,7985 L 15096,7985 15096,4429 15097,4429 15097,7985 15097,7985 Z"/>
      </g>
     </g>
     <g class="com.sun.star.drawing.ClosedBezierShape">
      <g id="id6">
       <path fill="rgb(114,159,207)" stroke="none" d="M 4429,6207 C 6405,6207 6056,4556 6056,4556 L 4429,4556 4429,4659 4429,6207 Z"/>
       <path fill="none" stroke="rgb(52,101,175)" d="M 4429,6207 C 6405,6207 6056,4556 6056,4556 L 4429,4556 4429,4659 4429,6207 Z"/>
      </g>
     </g>
     <g class="com.sun.star.drawing.ClosedBezierShape">
      <g id="id7">
       <path fill="rgb(114,159,207)" stroke="none" d="M 4429,6334 C 6405,6334 6056,7985 6056,7985 L 4429,7985 4429,7882 4429,6334 Z"/>
       <path fill="none" stroke="rgb(52,101,175)" d="M 4429,6334 C 6405,6334 6056,7985 6056,7985 L 4429,7985 4429,7882 4429,6334 Z"/>
      </g>
     </g>
     <g class="com.sun.star.drawing.ClosedBezierShape">
      <g id="id8">
       <path fill="rgb(114,159,207)" stroke="none" d="M 13637,9382 C 15081,9382 14826,8112 14826,8112 L 13637,8112 13637,8191 13637,9382 Z"/>
       <path fill="none" stroke="rgb(52,101,175)" d="M 13637,9382 C 15081,9382 14826,8112 14826,8112 L 13637,8112 13637,8191 13637,9382 Z"/>
      </g>
     </g>
     <g class="com.sun.star.drawing.ClosedBezierShape">
      <g id="id9">
       <path fill="rgb(114,159,207)" stroke="none" d="M 11224,9382 C 12668,9382 12413,8112 12413,8112 L 11224,8112 11224,8191 11224,9382 Z"/>
       <path fill="none" stroke="rgb(52,101,175)" d="M 11224,9382 C 12668,9382 12413,8112 12413,8112 L 11224,8112 11224,8191 11224,9382 Z"/>
      </g>
     </g>
     <g class="com.sun.star.drawing.ClosedBezierShape">
      <g id="id10">
       <path fill="rgb(114,159,207)" stroke="none" d="M 13636,9382 C 12193,9382 12447,8112 12447,8112 L 13636,8112 13636,8191 13636,9382 Z"/>
       <path fill="none" stroke="rgb(52,101,175)" d="M 13636,9382 C 12193,9382 12447,8112 12447,8112 L 13636,8112 13636,8191 13636,9382 Z"/>
      </g>
     </g>
     <g class="com.sun.star.drawing.ClosedBezierShape">
      <g id="id11">
       <path fill="rgb(114,159,207)" stroke="none" d="M 13826,19669 C 12383,19669 12637,18399 12637,18399 L 13826,18399 13826,18478 13826,19669 Z"/>
       <path fill="none" stroke="rgb(52,101,175)" d="M 13826,19669 C 12383,19669 12637,18399 12637,18399 L 13826,18399 13826,18478 13826,19669 Z"/>
      </g>
     </g>
     <g class="com.sun.star.drawing.ClosedBezierShape">
      <g id="id12">
       <path fill="rgb(114,159,207)" stroke="none" d="M 15097,13192 C 14033,13192 14221,12176 14221,12176 L 15097,12176 15097,12240 15097,13192 Z"/>
       <path fill="none" stroke="rgb(52,101,175)" d="M 15097,13192 C 14033,13192 14221,12176 14221,12176 L 15097,12176 15097,12240 15097,13192 Z"/>
      </g>
     </g>
     <g class="com.sun.star.drawing.ClosedBezierShape">
      <g id="id13">
       <path fill="rgb(114,159,207)" stroke="none" d="M 15097,11160 C 14033,11160 14221,10144 14221,10144 L 15097,10144 15097,10208 15097,11160 Z"/>
       <path fill="none" stroke="rgb(52,101,175)" d="M 15097,11160 C 14033,11160 14221,10144 14221,10144 L 15097,10144 15097,10208 15097,11160 Z"/>
      </g>
     </g>
     <g class="com.sun.star.drawing.ClosedBezierShape">
      <g id="id14">
       <path fill="rgb(114,159,207)" stroke="none" d="M 15097,9128 C 14033,9128 14221,10144 14221,10144 L 15097,10144 15097,10081 15097,9128 Z"/>
       <path fill="none" stroke="rgb(52,101,175)" d="M 15097,9128 C 14033,9128 14221,10144 14221,10144 L 15097,10144 15097,10081 15097,9128 Z"/>
      </g>
     </g>
     <g class="com.sun.star.drawing.ClosedBezierShape">
      <g id="id15">
       <path fill="rgb(114,159,207)" stroke="none" d="M 15097,11160 C 14033,11160 14221,12176 14221,12176 L 15097,12176 15097,12112 15097,11160 Z"/>
       <path fill="none" stroke="rgb(52,101,175)" d="M 15097,11160 C 14033,11160 14221,12176 14221,12176 L 15097,12176 15097,12112 15097,11160 Z"/>
      </g>
     </g>
     <g class="com.sun.star.drawing.CustomShape">
      <g id="id16">
       <path fill="rgb(114,159,207)" stroke="none" d="M 15859,14334 L 15097,14334 15097,12683 16621,12683 16621,14334 15859,14334 Z"/>
       <path fill="none" stroke="rgb(52,101,175)" d="M 15859,14334 L 15097,14334 15097,12683 16621,12683 16621,14334 15859,14334 Z"/>
      </g>
     </g>
     <g class="com.sun.star.drawing.CustomShape">
      <g id="id17">
       <path fill="rgb(114,159,207)" stroke="none" d="M 16621,18399 L 16620,18399 16620,14335 16621,14335 16621,18399 16621,18399 Z"/>
       <path fill="none" stroke="rgb(0,0,0)" stroke-width="51" d="M 16621,18399 L 16620,18399 16620,14335 16621,14335 16621,18399 16621,18399 Z"/>
      </g>
     </g>
     <g class="com.sun.star.drawing.CustomShape">
      <g id="id18">
       <path fill="rgb(114,159,207)" stroke="none" d="M 15160,10143 L 15096,10143 15096,7984 15223,7984 15223,10143 15160,10143 Z"/>
       <path fill="none" stroke="rgb(0,0,0)" stroke-width="51" d="M 15160,10143 L 15096,10143 15096,7984 15223,7984 15223,10143 15160,10143 Z"/>
      </g>
     </g>
     <g class="com.sun.star.drawing.CustomShape">
      <g id="id19">
       <path fill="rgb(114,159,207)" stroke="none" d="M 15224,12556 L 15223,12556 15223,12175 15224,12175 15224,12556 15224,12556 Z"/>
       <path fill="none" stroke="rgb(0,0,0)" stroke-width="51" d="M 15224,12556 L 15223,12556 15223,12175 15224,12175 15224,12556 15224,12556 Z"/>
      </g>
     </g>
     <g class="com.sun.star.drawing.ClosedBezierShape">
      <g id="id20">
       <path fill="rgb(114,159,207)" stroke="none" d="M 16811,9382 C 15368,9382 15622,8112 15622,8112 L 16811,8112 16811,8191 16811,9382 Z"/>
       <path fill="none" stroke="rgb(52,101,175)" d="M 16811,9382 C 15368,9382 15622,8112 15622,8112 L 16811,8112 16811,8191 16811,9382 Z"/>
      </g>
     </g>
     <g class="com.sun.star.drawing.ClosedBezierShape">
      <g id="id21">
       <path fill="rgb(114,159,207)" stroke="none" d="M 11224,9382 C 9781,9382 10035,8112 10035,8112 L 11224,8112 11224,8191 11224,9382 Z"/>
       <path fill="none" stroke="rgb(52,101,175)" d="M 11224,9382 C 9781,9382 10035,8112 10035,8112 L 11224,8112 11224,8191 11224,9382 Z"/>
      </g>
     </g>
     <g class="com.sun.star.drawing.ClosedBezierShape">
      <g id="id22">
       <path fill="rgb(114,159,207)" stroke="none" d="M 15033,14335 C 13590,14335 13844,13065 13844,13065 L 15033,13065 15033,13144 15033,14335 Z"/>
       <path fill="none" stroke="rgb(52,101,175)" d="M 15033,14335 C 13590,14335 13844,13065 13844,13065 L 15033,13065 15033,13144 15033,14335 Z"/>
      </g>
     </g>
     <g class="com.sun.star.drawing.TextShape">
      <g id="id23">
       <text class="TextShape"><tspan class="TextParagraph" font-family="Arial, sans-serif" font-size="635px" font-weight="400"><tspan class="TextPosition" x="6965" y="13381"><tspan fill="rgb(0,0,0)" stroke="none">Seminarraum</tspan></tspan></tspan></text>
      </g>
     </g>
     <g class="com.sun.star.drawing.TextShape">
      <g id="id24">
       <text class="TextShape"><tspan class="TextParagraph" font-family="Arial, sans-serif" font-size="635px" font-weight="400"><tspan class="TextPosition" x="20046" y="13381"><tspan fill="rgb(0,0,0)" stroke="none">Werkstatt</tspan></tspan></tspan></text>
      </g>
     </g>
     <g class="com.sun.star.drawing.TextShape">
      <g id="id25">
       <text class="TextShape"><tspan class="TextParagraph" font-family="Arial, sans-serif" font-size="635px" font-weight="400"><tspan class="TextPosition" x="7212" y="6650"><tspan fill="rgb(0,0,0)" stroke="none">Eingangsbereich</tspan></tspan></tspan></text>
      </g>
     </g>
     <g class="com.sun.star.drawing.TextShape">
      <g id="id26">
       <text class="TextShape"><tspan class="TextParagraph" font-family="Arial, sans-serif" font-size="635px" font-weight="400"><tspan class="TextPosition" x="17633" y="6576"><tspan fill="rgb(0,0,0)" stroke="none">Treppenhaus und WC</tspan></tspan></tspan></text>
      </g>
     </g>
    </g>
   </g>
  </g>
 </g>
</svg>